<svg xmlns="http://www.w3.org/2000/svg" width="920" height="338" viewBox="0 0 920 338">
<rect width="100%" height="100%" fill="white"/>
<text x="24" y="26" font-size="20" font-family="Arial" fill="#111111">Mapping-Type Analysis (TransE, tail, t&gt;=10)</text>
<rect x="24" y="44" width="280" height="230" fill="white" stroke="#d9d9d9" stroke-width="1"/>
<text x="34" y="66" font-size="13" font-family="Arial" fill="#111111">Hits@10 | test_support &gt;= 10</text>
<line x1="74" y1="226.0" x2="284" y2="226.0" stroke="#ededed" stroke-width="1"/>
<text x="66" y="230.0" text-anchor="end" font-size="10" font-family="Arial" fill="#666666">0.00</text>
<line x1="74" y1="190.5" x2="284" y2="190.5" stroke="#ededed" stroke-width="1"/>
<text x="66" y="194.5" text-anchor="end" font-size="10" font-family="Arial" fill="#666666">0.25</text>
<line x1="74" y1="155.0" x2="284" y2="155.0" stroke="#ededed" stroke-width="1"/>
<text x="66" y="159.0" text-anchor="end" font-size="10" font-family="Arial" fill="#666666">0.50</text>
<line x1="74" y1="119.5" x2="284" y2="119.5" stroke="#ededed" stroke-width="1"/>
<text x="66" y="123.5" text-anchor="end" font-size="10" font-family="Arial" fill="#666666">0.75</text>
<line x1="74" y1="84.0" x2="284" y2="84.0" stroke="#ededed" stroke-width="1"/>
<text x="66" y="88.0" text-anchor="end" font-size="10" font-family="Arial" fill="#666666">1.00</text>
<line x1="74" y1="161.39" x2="284" y2="161.39" stroke="#c7352b" stroke-width="1.6" stroke-dasharray="6 4"/>
<line x1="74" y1="226" x2="284" y2="226" stroke="#999999" stroke-width="1.1"/>
<text x="100.25" y="244" text-anchor="middle" font-size="10" font-family="Arial" fill="#444444">1-1</text>
<line x1="100.25" y1="222.17250668151038" x2="100.25" y2="84.0" stroke="#4e79a7" stroke-width="1.3"/>
<line x1="92.25" y1="222.17250668151038" x2="108.25" y2="222.17250668151038" stroke="#4e79a7" stroke-width="1.3"/>
<line x1="92.25" y1="84.0" x2="108.25" y2="84.0" stroke="#4e79a7" stroke-width="1.3"/>
<rect x="86.25" y="84.0" width="28" height="67.40389620832036" fill="#4e79a7" fill-opacity="0.22" stroke="#4e79a7" stroke-width="1.3"/>
<line x1="86.25" y1="107.66666827883039" x2="114.25" y2="107.66666827883039" stroke="#4e79a7" stroke-width="1.8"/>
<text x="100.25" y="258" text-anchor="middle" font-size="9" font-family="Arial" fill="#777777">n=7</text>
<text x="152.75" y="244" text-anchor="middle" font-size="10" font-family="Arial" fill="#444444">1-N</text>
<line x1="152.75" y1="223.84194531930345" x2="152.75" y2="146.05041707413537" stroke="#f28e2b" stroke-width="1.3"/>
<line x1="144.75" y1="223.84194531930345" x2="160.75" y2="223.84194531930345" stroke="#f28e2b" stroke-width="1.3"/>
<line x1="144.75" y1="146.05041707413537" x2="160.75" y2="146.05041707413537" stroke="#f28e2b" stroke-width="1.3"/>
<rect x="138.75" y="190.36827362860953" width="28" height="27.151018716794027" fill="#f28e2b" fill-opacity="0.22" stroke="#f28e2b" stroke-width="1.3"/>
<line x1="138.75" y1="206.38304503262043" x2="166.75" y2="206.38304503262043" stroke="#f28e2b" stroke-width="1.8"/>
<text x="152.75" y="258" text-anchor="middle" font-size="9" font-family="Arial" fill="#777777">n=22</text>
<text x="205.25" y="244" text-anchor="middle" font-size="10" font-family="Arial" fill="#444444">M-1</text>
<line x1="205.25" y1="187.16734532373292" x2="205.25" y2="84.0" stroke="#59a14f" stroke-width="1.3"/>
<line x1="197.25" y1="187.16734532373292" x2="213.25" y2="187.16734532373292" stroke="#59a14f" stroke-width="1.3"/>
<line x1="197.25" y1="84.0" x2="213.25" y2="84.0" stroke="#59a14f" stroke-width="1.3"/>
<rect x="191.25" y="84.0" width="28" height="41.312636562756126" fill="#59a14f" fill-opacity="0.22" stroke="#59a14f" stroke-width="1.3"/>
<line x1="191.25" y1="95.45910821642194" x2="219.25" y2="95.45910821642194" stroke="#59a14f" stroke-width="1.8"/>
<text x="205.25" y="258" text-anchor="middle" font-size="9" font-family="Arial" fill="#777777">n=63</text>
<text x="257.75" y="244" text-anchor="middle" font-size="10" font-family="Arial" fill="#444444">M-N</text>
<line x1="257.75" y1="226.0" x2="257.75" y2="84.0" stroke="#e15759" stroke-width="1.3"/>
<line x1="249.75" y1="226.0" x2="265.75" y2="226.0" stroke="#e15759" stroke-width="1.3"/>
<line x1="249.75" y1="84.0" x2="265.75" y2="84.0" stroke="#e15759" stroke-width="1.3"/>
<rect x="243.75" y="95.13422296728407" width="28" height="90.86756433227231" fill="#e15759" fill-opacity="0.22" stroke="#e15759" stroke-width="1.3"/>
<line x1="243.75" y1="132.07272663286756" x2="271.75" y2="132.07272663286756" stroke="#e15759" stroke-width="1.8"/>
<text x="257.75" y="258" text-anchor="middle" font-size="9" font-family="Arial" fill="#777777">n=90</text>
<rect x="320" y="44" width="280" height="230" fill="white" stroke="#d9d9d9" stroke-width="1"/>
<text x="330" y="66" font-size="13" font-family="Arial" fill="#111111">Alpha | test_support &gt;= 10</text>
<line x1="370" y1="226.0" x2="580" y2="226.0" stroke="#ededed" stroke-width="1"/>
<text x="362" y="230.0" text-anchor="end" font-size="10" font-family="Arial" fill="#666666">0.00</text>
<line x1="370" y1="190.5" x2="580" y2="190.5" stroke="#ededed" stroke-width="1"/>
<text x="362" y="194.5" text-anchor="end" font-size="10" font-family="Arial" fill="#666666">0.25</text>
<line x1="370" y1="155.0" x2="580" y2="155.0" stroke="#ededed" stroke-width="1"/>
<text x="362" y="159.0" text-anchor="end" font-size="10" font-family="Arial" fill="#666666">0.50</text>
<line x1="370" y1="119.5" x2="580" y2="119.5" stroke="#ededed" stroke-width="1"/>
<text x="362" y="123.5" text-anchor="end" font-size="10" font-family="Arial" fill="#666666">0.75</text>
<line x1="370" y1="84.0" x2="580" y2="84.0" stroke="#ededed" stroke-width="1"/>
<text x="362" y="88.0" text-anchor="end" font-size="10" font-family="Arial" fill="#666666">1.00</text>
<line x1="370" y1="171.32999999999998" x2="580" y2="171.32999999999998" stroke="#c7352b" stroke-width="1.6" stroke-dasharray="6 4"/>
<line x1="370" y1="226" x2="580" y2="226" stroke="#999999" stroke-width="1.1"/>
<text x="396.25" y="244" text-anchor="middle" font-size="10" font-family="Arial" fill="#444444">1-1</text>
<line x1="396.25" y1="226.0" x2="396.25" y2="84.0" stroke="#4e79a7" stroke-width="1.3"/>
<line x1="388.25" y1="226.0" x2="404.25" y2="226.0" stroke="#4e79a7" stroke-width="1.3"/>
<line x1="388.25" y1="84.0" x2="404.25" y2="84.0" stroke="#4e79a7" stroke-width="1.3"/>
<rect x="382.25" y="158.3411741554737" width="28" height="67.65882584452629" fill="#4e79a7" fill-opacity="0.22" stroke="#4e79a7" stroke-width="1.3"/>
<line x1="382.25" y1="226.0" x2="410.25" y2="226.0" stroke="#4e79a7" stroke-width="1.8"/>
<text x="396.25" y="258" text-anchor="middle" font-size="9" font-family="Arial" fill="#777777">n=7</text>
<text x="448.75" y="244" text-anchor="middle" font-size="10" font-family="Arial" fill="#444444">1-N</text>
<line x1="448.75" y1="226.0" x2="448.75" y2="84.0" stroke="#f28e2b" stroke-width="1.3"/>
<line x1="440.75" y1="226.0" x2="456.75" y2="226.0" stroke="#f28e2b" stroke-width="1.3"/>
<line x1="440.75" y1="84.0" x2="456.75" y2="84.0" stroke="#f28e2b" stroke-width="1.3"/>
<rect x="434.75" y="86.29032251238823" width="28" height="54.50967410206795" fill="#f28e2b" fill-opacity="0.22" stroke="#f28e2b" stroke-width="1.3"/>
<line x1="434.75" y1="111.89285653829575" x2="462.75" y2="111.89285653829575" stroke="#f28e2b" stroke-width="1.8"/>
<text x="448.75" y="258" text-anchor="middle" font-size="9" font-family="Arial" fill="#777777">n=22</text>
<text x="501.25" y="244" text-anchor="middle" font-size="10" font-family="Arial" fill="#444444">M-1</text>
<line x1="501.25" y1="226.0" x2="501.25" y2="121.86666440963745" stroke="#59a14f" stroke-width="1.3"/>
<line x1="493.25" y1="226.0" x2="509.25" y2="226.0" stroke="#59a14f" stroke-width="1.3"/>
<line x1="493.25" y1="121.86666440963745" x2="509.25" y2="121.86666440963745" stroke="#59a14f" stroke-width="1.3"/>
<rect x="487.25" y="177.082423299551" width="28" height="48.91757670044899" fill="#59a14f" fill-opacity="0.22" stroke="#59a14f" stroke-width="1.3"/>
<line x1="487.25" y1="220.04612179845572" x2="515.25" y2="220.04612179845572" stroke="#59a14f" stroke-width="1.8"/>
<text x="501.25" y="258" text-anchor="middle" font-size="9" font-family="Arial" fill="#777777">n=63</text>
<text x="553.75" y="244" text-anchor="middle" font-size="10" font-family="Arial" fill="#444444">M-N</text>
<line x1="553.75" y1="226.0" x2="553.75" y2="84.0" stroke="#e15759" stroke-width="1.3"/>
<line x1="545.75" y1="226.0" x2="561.75" y2="226.0" stroke="#e15759" stroke-width="1.3"/>
<line x1="545.75" y1="84.0" x2="561.75" y2="84.0" stroke="#e15759" stroke-width="1.3"/>
<rect x="539.75" y="126.76136517524719" width="28" height="88.84839130938053" fill="#e15759" fill-opacity="0.22" stroke="#e15759" stroke-width="1.3"/>
<line x1="539.75" y1="175.5567935705185" x2="567.75" y2="175.5567935705185" stroke="#e15759" stroke-width="1.8"/>
<text x="553.75" y="258" text-anchor="middle" font-size="9" font-family="Arial" fill="#777777">n=89</text>
<rect x="616" y="44" width="280" height="230" fill="white" stroke="#d9d9d9" stroke-width="1"/>
<text x="626" y="66" font-size="13" font-family="Arial" fill="#111111">Delta | test_support &gt;= 10</text>
<line x1="666" y1="226.0" x2="876" y2="226.0" stroke="#ededed" stroke-width="1"/>
<text x="658" y="230.0" text-anchor="end" font-size="10" font-family="Arial" fill="#666666">0.00</text>
<line x1="666" y1="190.5" x2="876" y2="190.5" stroke="#ededed" stroke-width="1"/>
<text x="658" y="194.5" text-anchor="end" font-size="10" font-family="Arial" fill="#666666">0.25</text>
<line x1="666" y1="155.0" x2="876" y2="155.0" stroke="#ededed" stroke-width="1"/>
<text x="658" y="159.0" text-anchor="end" font-size="10" font-family="Arial" fill="#666666">0.50</text>
<line x1="666" y1="119.5" x2="876" y2="119.5" stroke="#ededed" stroke-width="1"/>
<text x="658" y="123.5" text-anchor="end" font-size="10" font-family="Arial" fill="#666666">0.75</text>
<line x1="666" y1="84.0" x2="876" y2="84.0" stroke="#ededed" stroke-width="1"/>
<text x="658" y="88.0" text-anchor="end" font-size="10" font-family="Arial" fill="#666666">1.00</text>
<line x1="666" y1="205.41" x2="876" y2="205.41" stroke="#c7352b" stroke-width="1.6" stroke-dasharray="6 4"/>
<line x1="666" y1="226" x2="876" y2="226" stroke="#999999" stroke-width="1.1"/>
<text x="692.25" y="244" text-anchor="middle" font-size="10" font-family="Arial" fill="#444444">1-1</text>
<line x1="692.25" y1="226.0" x2="692.25" y2="140.8" stroke="#4e79a7" stroke-width="1.3"/>
<line x1="684.25" y1="226.0" x2="700.25" y2="226.0" stroke="#4e79a7" stroke-width="1.3"/>
<line x1="684.25" y1="140.8" x2="700.25" y2="140.8" stroke="#4e79a7" stroke-width="1.3"/>
<rect x="678.25" y="158.34117647058824" width="28" height="67.65882352941176" fill="#4e79a7" fill-opacity="0.22" stroke="#4e79a7" stroke-width="1.3"/>
<line x1="678.25" y1="226.0" x2="706.25" y2="226.0" stroke="#4e79a7" stroke-width="1.8"/>
<text x="692.25" y="258" text-anchor="middle" font-size="9" font-family="Arial" fill="#777777">n=7</text>
<text x="744.75" y="244" text-anchor="middle" font-size="10" font-family="Arial" fill="#444444">1-N</text>
<line x1="744.75" y1="226.0" x2="744.75" y2="84.0" stroke="#f28e2b" stroke-width="1.3"/>
<line x1="736.75" y1="226.0" x2="752.75" y2="226.0" stroke="#f28e2b" stroke-width="1.3"/>
<line x1="736.75" y1="84.0" x2="752.75" y2="84.0" stroke="#f28e2b" stroke-width="1.3"/>
<rect x="730.75" y="147.39285714285714" width="28" height="24.469642857142873" fill="#f28e2b" fill-opacity="0.22" stroke="#f28e2b" stroke-width="1.3"/>
<line x1="730.75" y1="168.55454545454546" x2="758.75" y2="168.55454545454546" stroke="#f28e2b" stroke-width="1.8"/>
<text x="744.75" y="258" text-anchor="middle" font-size="9" font-family="Arial" fill="#777777">n=22</text>
<text x="797.25" y="244" text-anchor="middle" font-size="10" font-family="Arial" fill="#444444">M-1</text>
<line x1="797.25" y1="226.0" x2="797.25" y2="159.73333333333335" stroke="#59a14f" stroke-width="1.3"/>
<line x1="789.25" y1="226.0" x2="805.25" y2="226.0" stroke="#59a14f" stroke-width="1.3"/>
<line x1="789.25" y1="159.73333333333335" x2="805.25" y2="159.73333333333335" stroke="#59a14f" stroke-width="1.3"/>
<rect x="783.25" y="195.20299145299145" width="28" height="30.797008547008545" fill="#59a14f" fill-opacity="0.22" stroke="#59a14f" stroke-width="1.3"/>
<line x1="783.25" y1="222.40506329113924" x2="811.25" y2="222.40506329113924" stroke="#59a14f" stroke-width="1.8"/>
<text x="797.25" y="258" text-anchor="middle" font-size="9" font-family="Arial" fill="#777777">n=63</text>
<text x="849.75" y="244" text-anchor="middle" font-size="10" font-family="Arial" fill="#444444">M-N</text>
<line x1="849.75" y1="226.0" x2="849.75" y2="101.75" stroke="#e15759" stroke-width="1.3"/>
<line x1="841.75" y1="226.0" x2="857.75" y2="226.0" stroke="#e15759" stroke-width="1.3"/>
<line x1="841.75" y1="101.75" x2="857.75" y2="101.75" stroke="#e15759" stroke-width="1.3"/>
<rect x="835.75" y="175.88235294117646" width="28" height="42.83559577677224" fill="#e15759" fill-opacity="0.22" stroke="#e15759" stroke-width="1.3"/>
<line x1="835.75" y1="197.60000000000002" x2="863.75" y2="197.60000000000002" stroke="#e15759" stroke-width="1.8"/>
<text x="849.75" y="258" text-anchor="middle" font-size="9" font-family="Arial" fill="#777777">n=89</text>
</svg>
