<svg xmlns="http://www.w3.org/2000/svg" width="920" height="586" viewBox="0 0 920 586">
<rect width="100%" height="100%" fill="#fafafa"/>
<text x="24" y="26" font-size="20" font-family="Arial" fill="#111111">Mapping-Type By-Side Analysis</text>
<rect x="24" y="44" width="280" height="230" fill="white" stroke="#d9d9d9" stroke-width="1"/>
<text x="34" y="66" font-size="13" font-family="Arial" fill="#111111">Hits@10 | head | &gt;= 10</text>
<line x1="74" y1="226.0" x2="284" y2="226.0" stroke="#ededed" stroke-width="1"/>
<text x="66" y="230.0" text-anchor="end" font-size="10" font-family="Arial" fill="#666666">0.00</text>
<line x1="74" y1="190.5" x2="284" y2="190.5" stroke="#ededed" stroke-width="1"/>
<text x="66" y="194.5" text-anchor="end" font-size="10" font-family="Arial" fill="#666666">0.25</text>
<line x1="74" y1="155.0" x2="284" y2="155.0" stroke="#ededed" stroke-width="1"/>
<text x="66" y="159.0" text-anchor="end" font-size="10" font-family="Arial" fill="#666666">0.50</text>
<line x1="74" y1="119.5" x2="284" y2="119.5" stroke="#ededed" stroke-width="1"/>
<text x="66" y="123.5" text-anchor="end" font-size="10" font-family="Arial" fill="#666666">0.75</text>
<line x1="74" y1="84.0" x2="284" y2="84.0" stroke="#ededed" stroke-width="1"/>
<text x="66" y="88.0" text-anchor="end" font-size="10" font-family="Arial" fill="#666666">1.00</text>
<line x1="74" y1="226" x2="284" y2="226" stroke="#999999" stroke-width="1.1"/>
<text x="100.25" y="244" text-anchor="middle" font-size="10" font-family="Arial" fill="#444444">1-1</text>
<line x1="100.25" y1="217.57951469932286" x2="100.25" y2="84.0" stroke="#4e79a7" stroke-width="1.3"/>
<line x1="92.25" y1="217.57951469932286" x2="108.25" y2="217.57951469932286" stroke="#4e79a7" stroke-width="1.3"/>
<line x1="92.25" y1="84.0" x2="108.25" y2="84.0" stroke="#4e79a7" stroke-width="1.3"/>
<rect x="86.25" y="84.0" width="28" height="75.70259775434221" fill="#4e79a7" fill-opacity="0.22" stroke="#4e79a7" stroke-width="1.3"/>
<line x1="86.25" y1="111.04761864457812" x2="114.25" y2="111.04761864457812" stroke="#4e79a7" stroke-width="1.8"/>
<text x="100.25" y="258" text-anchor="middle" font-size="9" font-family="Arial" fill="#777777">n=7</text>
<text x="152.75" y="244" text-anchor="middle" font-size="10" font-family="Arial" fill="#444444">1-N</text>
<line x1="152.75" y1="184.6458433696202" x2="152.75" y2="84.0" stroke="#f28e2b" stroke-width="1.3"/>
<line x1="144.75" y1="184.6458433696202" x2="160.75" y2="184.6458433696202" stroke="#f28e2b" stroke-width="1.3"/>
<line x1="144.75" y1="84.0" x2="160.75" y2="84.0" stroke="#f28e2b" stroke-width="1.3"/>
<rect x="138.75" y="84.0" width="28" height="70.16851436666082" fill="#f28e2b" fill-opacity="0.22" stroke="#f28e2b" stroke-width="1.3"/>
<line x1="138.75" y1="106.00692355632782" x2="166.75" y2="106.00692355632782" stroke="#f28e2b" stroke-width="1.8"/>
<text x="152.75" y="258" text-anchor="middle" font-size="9" font-family="Arial" fill="#777777">n=22</text>
<text x="205.25" y="244" text-anchor="middle" font-size="10" font-family="Arial" fill="#444444">M-1</text>
<line x1="205.25" y1="224.41701077031237" x2="205.25" y2="87.04285786833081" stroke="#59a14f" stroke-width="1.3"/>
<line x1="197.25" y1="224.41701077031237" x2="213.25" y2="224.41701077031237" stroke="#59a14f" stroke-width="1.3"/>
<line x1="197.25" y1="87.04285786833081" x2="213.25" y2="87.04285786833081" stroke="#59a14f" stroke-width="1.3"/>
<rect x="191.25" y="184.65578145214488" width="28" height="31.201361197180006" fill="#59a14f" fill-opacity="0.22" stroke="#59a14f" stroke-width="1.3"/>
<line x1="191.25" y1="204.17080751912934" x2="219.25" y2="204.17080751912934" stroke="#59a14f" stroke-width="1.8"/>
<text x="205.25" y="258" text-anchor="middle" font-size="9" font-family="Arial" fill="#777777">n=63</text>
<text x="257.75" y="244" text-anchor="middle" font-size="10" font-family="Arial" fill="#444444">M-N</text>
<line x1="257.75" y1="226.0" x2="257.75" y2="84.0" stroke="#e15759" stroke-width="1.3"/>
<line x1="249.75" y1="226.0" x2="265.75" y2="226.0" stroke="#e15759" stroke-width="1.3"/>
<line x1="249.75" y1="84.0" x2="265.75" y2="84.0" stroke="#e15759" stroke-width="1.3"/>
<rect x="243.75" y="100.36618133102145" width="28" height="81.71607596107891" fill="#e15759" fill-opacity="0.22" stroke="#e15759" stroke-width="1.3"/>
<line x1="243.75" y1="137.93423775264196" x2="271.75" y2="137.93423775264196" stroke="#e15759" stroke-width="1.8"/>
<text x="257.75" y="258" text-anchor="middle" font-size="9" font-family="Arial" fill="#777777">n=90</text>
<rect x="320" y="44" width="280" height="230" fill="white" stroke="#d9d9d9" stroke-width="1"/>
<text x="330" y="66" font-size="13" font-family="Arial" fill="#111111">Alpha | head | &gt;= 10</text>
<line x1="370" y1="226.0" x2="580" y2="226.0" stroke="#ededed" stroke-width="1"/>
<text x="362" y="230.0" text-anchor="end" font-size="10" font-family="Arial" fill="#666666">0.00</text>
<line x1="370" y1="190.5" x2="580" y2="190.5" stroke="#ededed" stroke-width="1"/>
<text x="362" y="194.5" text-anchor="end" font-size="10" font-family="Arial" fill="#666666">0.25</text>
<line x1="370" y1="155.0" x2="580" y2="155.0" stroke="#ededed" stroke-width="1"/>
<text x="362" y="159.0" text-anchor="end" font-size="10" font-family="Arial" fill="#666666">0.50</text>
<line x1="370" y1="119.5" x2="580" y2="119.5" stroke="#ededed" stroke-width="1"/>
<text x="362" y="123.5" text-anchor="end" font-size="10" font-family="Arial" fill="#666666">0.75</text>
<line x1="370" y1="84.0" x2="580" y2="84.0" stroke="#ededed" stroke-width="1"/>
<text x="362" y="88.0" text-anchor="end" font-size="10" font-family="Arial" fill="#666666">1.00</text>
<line x1="370" y1="226" x2="580" y2="226" stroke="#999999" stroke-width="1.1"/>
<text x="396.25" y="244" text-anchor="middle" font-size="10" font-family="Arial" fill="#444444">1-1</text>
<line x1="396.25" y1="226.0" x2="396.25" y2="84.0" stroke="#4e79a7" stroke-width="1.3"/>
<line x1="388.25" y1="226.0" x2="404.25" y2="226.0" stroke="#4e79a7" stroke-width="1.3"/>
<line x1="388.25" y1="84.0" x2="404.25" y2="84.0" stroke="#4e79a7" stroke-width="1.3"/>
<rect x="382.25" y="147.1490381360054" width="28" height="78.8509618639946" fill="#4e79a7" fill-opacity="0.22" stroke="#4e79a7" stroke-width="1.3"/>
<line x1="382.25" y1="226.0" x2="410.25" y2="226.0" stroke="#4e79a7" stroke-width="1.8"/>
<text x="396.25" y="258" text-anchor="middle" font-size="9" font-family="Arial" fill="#777777">n=7</text>
<text x="448.75" y="244" text-anchor="middle" font-size="10" font-family="Arial" fill="#444444">1-N</text>
<line x1="448.75" y1="226.0" x2="448.75" y2="131.6643351316452" stroke="#f28e2b" stroke-width="1.3"/>
<line x1="440.75" y1="226.0" x2="456.75" y2="226.0" stroke="#f28e2b" stroke-width="1.3"/>
<line x1="440.75" y1="131.6643351316452" x2="456.75" y2="131.6643351316452" stroke="#f28e2b" stroke-width="1.3"/>
<rect x="434.75" y="161.81312975287437" width="28" height="64.18687024712563" fill="#f28e2b" fill-opacity="0.22" stroke="#f28e2b" stroke-width="1.3"/>
<line x1="434.75" y1="206.6151314675808" x2="462.75" y2="206.6151314675808" stroke="#f28e2b" stroke-width="1.8"/>
<text x="448.75" y="258" text-anchor="middle" font-size="9" font-family="Arial" fill="#777777">n=22</text>
<text x="501.25" y="244" text-anchor="middle" font-size="10" font-family="Arial" fill="#444444">M-1</text>
<line x1="501.25" y1="226.0" x2="501.25" y2="84.0" stroke="#59a14f" stroke-width="1.3"/>
<line x1="493.25" y1="226.0" x2="509.25" y2="226.0" stroke="#59a14f" stroke-width="1.3"/>
<line x1="493.25" y1="84.0" x2="509.25" y2="84.0" stroke="#59a14f" stroke-width="1.3"/>
<rect x="487.25" y="84.0" width="28" height="47.333330512046814" fill="#59a14f" fill-opacity="0.22" stroke="#59a14f" stroke-width="1.3"/>
<line x1="487.25" y1="109.8181825876236" x2="515.25" y2="109.8181825876236" stroke="#59a14f" stroke-width="1.8"/>
<text x="501.25" y="258" text-anchor="middle" font-size="9" font-family="Arial" fill="#777777">n=63</text>
<text x="553.75" y="244" text-anchor="middle" font-size="10" font-family="Arial" fill="#444444">M-N</text>
<line x1="553.75" y1="226.0" x2="553.75" y2="84.0" stroke="#e15759" stroke-width="1.3"/>
<line x1="545.75" y1="226.0" x2="561.75" y2="226.0" stroke="#e15759" stroke-width="1.3"/>
<line x1="545.75" y1="84.0" x2="561.75" y2="84.0" stroke="#e15759" stroke-width="1.3"/>
<rect x="539.75" y="126.0983275771141" width="28" height="72.3891722112894" fill="#e15759" fill-opacity="0.22" stroke="#e15759" stroke-width="1.3"/>
<line x1="539.75" y1="166.23938339948654" x2="567.75" y2="166.23938339948654" stroke="#e15759" stroke-width="1.8"/>
<text x="553.75" y="258" text-anchor="middle" font-size="9" font-family="Arial" fill="#777777">n=87</text>
<rect x="616" y="44" width="280" height="230" fill="white" stroke="#d9d9d9" stroke-width="1"/>
<text x="626" y="66" font-size="13" font-family="Arial" fill="#111111">Delta | head | &gt;= 10</text>
<line x1="666" y1="226.0" x2="876" y2="226.0" stroke="#ededed" stroke-width="1"/>
<text x="658" y="230.0" text-anchor="end" font-size="10" font-family="Arial" fill="#666666">0.00</text>
<line x1="666" y1="190.5" x2="876" y2="190.5" stroke="#ededed" stroke-width="1"/>
<text x="658" y="194.5" text-anchor="end" font-size="10" font-family="Arial" fill="#666666">0.25</text>
<line x1="666" y1="155.0" x2="876" y2="155.0" stroke="#ededed" stroke-width="1"/>
<text x="658" y="159.0" text-anchor="end" font-size="10" font-family="Arial" fill="#666666">0.50</text>
<line x1="666" y1="119.5" x2="876" y2="119.5" stroke="#ededed" stroke-width="1"/>
<text x="658" y="123.5" text-anchor="end" font-size="10" font-family="Arial" fill="#666666">0.75</text>
<line x1="666" y1="84.0" x2="876" y2="84.0" stroke="#ededed" stroke-width="1"/>
<text x="658" y="88.0" text-anchor="end" font-size="10" font-family="Arial" fill="#666666">1.00</text>
<line x1="666" y1="226" x2="876" y2="226" stroke="#999999" stroke-width="1.1"/>
<text x="692.25" y="244" text-anchor="middle" font-size="10" font-family="Arial" fill="#444444">1-1</text>
<line x1="692.25" y1="226.0" x2="692.25" y2="155.0" stroke="#4e79a7" stroke-width="1.3"/>
<line x1="684.25" y1="226.0" x2="700.25" y2="226.0" stroke="#4e79a7" stroke-width="1.3"/>
<line x1="684.25" y1="155.0" x2="700.25" y2="155.0" stroke="#4e79a7" stroke-width="1.3"/>
<rect x="678.25" y="195.27884615384613" width="28" height="30.721153846153868" fill="#4e79a7" fill-opacity="0.22" stroke="#4e79a7" stroke-width="1.3"/>
<line x1="678.25" y1="226.0" x2="706.25" y2="226.0" stroke="#4e79a7" stroke-width="1.8"/>
<text x="692.25" y="258" text-anchor="middle" font-size="9" font-family="Arial" fill="#777777">n=7</text>
<text x="744.75" y="244" text-anchor="middle" font-size="10" font-family="Arial" fill="#444444">1-N</text>
<line x1="744.75" y1="226.0" x2="744.75" y2="171.3846153846154" stroke="#f28e2b" stroke-width="1.3"/>
<line x1="736.75" y1="226.0" x2="752.75" y2="226.0" stroke="#f28e2b" stroke-width="1.3"/>
<line x1="736.75" y1="171.3846153846154" x2="752.75" y2="171.3846153846154" stroke="#f28e2b" stroke-width="1.3"/>
<rect x="730.75" y="190.47911764705884" width="28" height="35.52088235294116" fill="#f28e2b" fill-opacity="0.22" stroke="#f28e2b" stroke-width="1.3"/>
<line x1="730.75" y1="214.0888157894737" x2="758.75" y2="214.0888157894737" stroke="#f28e2b" stroke-width="1.8"/>
<text x="744.75" y="258" text-anchor="middle" font-size="9" font-family="Arial" fill="#777777">n=22</text>
<text x="797.25" y="244" text-anchor="middle" font-size="10" font-family="Arial" fill="#444444">M-1</text>
<line x1="797.25" y1="226.0" x2="797.25" y2="84.0" stroke="#59a14f" stroke-width="1.3"/>
<line x1="789.25" y1="226.0" x2="805.25" y2="226.0" stroke="#59a14f" stroke-width="1.3"/>
<line x1="789.25" y1="84.0" x2="805.25" y2="84.0" stroke="#59a14f" stroke-width="1.3"/>
<rect x="783.25" y="137.25" width="28" height="40.60057471264366" fill="#59a14f" fill-opacity="0.22" stroke="#59a14f" stroke-width="1.3"/>
<line x1="783.25" y1="155.0" x2="811.25" y2="155.0" stroke="#59a14f" stroke-width="1.8"/>
<text x="797.25" y="258" text-anchor="middle" font-size="9" font-family="Arial" fill="#777777">n=63</text>
<text x="849.75" y="244" text-anchor="middle" font-size="10" font-family="Arial" fill="#444444">M-N</text>
<line x1="849.75" y1="226.0" x2="849.75" y2="84.0" stroke="#e15759" stroke-width="1.3"/>
<line x1="841.75" y1="226.0" x2="857.75" y2="226.0" stroke="#e15759" stroke-width="1.3"/>
<line x1="841.75" y1="84.0" x2="857.75" y2="84.0" stroke="#e15759" stroke-width="1.3"/>
<rect x="835.75" y="175.19002695417788" width="28" height="34.477537964979376" fill="#e15759" fill-opacity="0.22" stroke="#e15759" stroke-width="1.3"/>
<line x1="835.75" y1="193.23076923076923" x2="863.75" y2="193.23076923076923" stroke="#e15759" stroke-width="1.8"/>
<text x="849.75" y="258" text-anchor="middle" font-size="9" font-family="Arial" fill="#777777">n=87</text>
<rect x="24" y="292" width="280" height="230" fill="white" stroke="#d9d9d9" stroke-width="1"/>
<text x="34" y="314" font-size="13" font-family="Arial" fill="#111111">Hits@10 | tail | &gt;= 10</text>
<line x1="74" y1="474.0" x2="284" y2="474.0" stroke="#ededed" stroke-width="1"/>
<text x="66" y="478.0" text-anchor="end" font-size="10" font-family="Arial" fill="#666666">0.00</text>
<line x1="74" y1="438.5" x2="284" y2="438.5" stroke="#ededed" stroke-width="1"/>
<text x="66" y="442.5" text-anchor="end" font-size="10" font-family="Arial" fill="#666666">0.25</text>
<line x1="74" y1="403.0" x2="284" y2="403.0" stroke="#ededed" stroke-width="1"/>
<text x="66" y="407.0" text-anchor="end" font-size="10" font-family="Arial" fill="#666666">0.50</text>
<line x1="74" y1="367.5" x2="284" y2="367.5" stroke="#ededed" stroke-width="1"/>
<text x="66" y="371.5" text-anchor="end" font-size="10" font-family="Arial" fill="#666666">0.75</text>
<line x1="74" y1="332.0" x2="284" y2="332.0" stroke="#ededed" stroke-width="1"/>
<text x="66" y="336.0" text-anchor="end" font-size="10" font-family="Arial" fill="#666666">1.00</text>
<line x1="74" y1="474" x2="284" y2="474" stroke="#999999" stroke-width="1.1"/>
<text x="100.25" y="492" text-anchor="middle" font-size="10" font-family="Arial" fill="#444444">1-1</text>
<line x1="100.25" y1="470.1725066815104" x2="100.25" y2="332.0" stroke="#4e79a7" stroke-width="1.3"/>
<line x1="92.25" y1="470.1725066815104" x2="108.25" y2="470.1725066815104" stroke="#4e79a7" stroke-width="1.3"/>
<line x1="92.25" y1="332.0" x2="108.25" y2="332.0" stroke="#4e79a7" stroke-width="1.3"/>
<rect x="86.25" y="332.0" width="28" height="67.40389620832036" fill="#4e79a7" fill-opacity="0.22" stroke="#4e79a7" stroke-width="1.3"/>
<line x1="86.25" y1="355.6666682788304" x2="114.25" y2="355.6666682788304" stroke="#4e79a7" stroke-width="1.8"/>
<text x="100.25" y="506" text-anchor="middle" font-size="9" font-family="Arial" fill="#777777">n=7</text>
<text x="152.75" y="492" text-anchor="middle" font-size="10" font-family="Arial" fill="#444444">1-N</text>
<line x1="152.75" y1="471.8419453193035" x2="152.75" y2="394.05041707413534" stroke="#f28e2b" stroke-width="1.3"/>
<line x1="144.75" y1="471.8419453193035" x2="160.75" y2="471.8419453193035" stroke="#f28e2b" stroke-width="1.3"/>
<line x1="144.75" y1="394.05041707413534" x2="160.75" y2="394.05041707413534" stroke="#f28e2b" stroke-width="1.3"/>
<rect x="138.75" y="438.36827362860953" width="28" height="27.151018716794" fill="#f28e2b" fill-opacity="0.22" stroke="#f28e2b" stroke-width="1.3"/>
<line x1="138.75" y1="454.38304503262043" x2="166.75" y2="454.38304503262043" stroke="#f28e2b" stroke-width="1.8"/>
<text x="152.75" y="506" text-anchor="middle" font-size="9" font-family="Arial" fill="#777777">n=22</text>
<text x="205.25" y="492" text-anchor="middle" font-size="10" font-family="Arial" fill="#444444">M-1</text>
<line x1="205.25" y1="435.1673453237329" x2="205.25" y2="332.0" stroke="#59a14f" stroke-width="1.3"/>
<line x1="197.25" y1="435.1673453237329" x2="213.25" y2="435.1673453237329" stroke="#59a14f" stroke-width="1.3"/>
<line x1="197.25" y1="332.0" x2="213.25" y2="332.0" stroke="#59a14f" stroke-width="1.3"/>
<rect x="191.25" y="332.0" width="28" height="41.3126365627561" fill="#59a14f" fill-opacity="0.22" stroke="#59a14f" stroke-width="1.3"/>
<line x1="191.25" y1="343.45910821642195" x2="219.25" y2="343.45910821642195" stroke="#59a14f" stroke-width="1.8"/>
<text x="205.25" y="506" text-anchor="middle" font-size="9" font-family="Arial" fill="#777777">n=63</text>
<text x="257.75" y="492" text-anchor="middle" font-size="10" font-family="Arial" fill="#444444">M-N</text>
<line x1="257.75" y1="474.0" x2="257.75" y2="332.0" stroke="#e15759" stroke-width="1.3"/>
<line x1="249.75" y1="474.0" x2="265.75" y2="474.0" stroke="#e15759" stroke-width="1.3"/>
<line x1="249.75" y1="332.0" x2="265.75" y2="332.0" stroke="#e15759" stroke-width="1.3"/>
<rect x="243.75" y="343.1342229672841" width="28" height="90.86756433227231" fill="#e15759" fill-opacity="0.22" stroke="#e15759" stroke-width="1.3"/>
<line x1="243.75" y1="380.07272663286756" x2="271.75" y2="380.07272663286756" stroke="#e15759" stroke-width="1.8"/>
<text x="257.75" y="506" text-anchor="middle" font-size="9" font-family="Arial" fill="#777777">n=90</text>
<rect x="320" y="292" width="280" height="230" fill="white" stroke="#d9d9d9" stroke-width="1"/>
<text x="330" y="314" font-size="13" font-family="Arial" fill="#111111">Alpha | tail | &gt;= 10</text>
<line x1="370" y1="474.0" x2="580" y2="474.0" stroke="#ededed" stroke-width="1"/>
<text x="362" y="478.0" text-anchor="end" font-size="10" font-family="Arial" fill="#666666">0.00</text>
<line x1="370" y1="438.5" x2="580" y2="438.5" stroke="#ededed" stroke-width="1"/>
<text x="362" y="442.5" text-anchor="end" font-size="10" font-family="Arial" fill="#666666">0.25</text>
<line x1="370" y1="403.0" x2="580" y2="403.0" stroke="#ededed" stroke-width="1"/>
<text x="362" y="407.0" text-anchor="end" font-size="10" font-family="Arial" fill="#666666">0.50</text>
<line x1="370" y1="367.5" x2="580" y2="367.5" stroke="#ededed" stroke-width="1"/>
<text x="362" y="371.5" text-anchor="end" font-size="10" font-family="Arial" fill="#666666">0.75</text>
<line x1="370" y1="332.0" x2="580" y2="332.0" stroke="#ededed" stroke-width="1"/>
<text x="362" y="336.0" text-anchor="end" font-size="10" font-family="Arial" fill="#666666">1.00</text>
<line x1="370" y1="474" x2="580" y2="474" stroke="#999999" stroke-width="1.1"/>
<text x="396.25" y="492" text-anchor="middle" font-size="10" font-family="Arial" fill="#444444">1-1</text>
<line x1="396.25" y1="474.0" x2="396.25" y2="332.0" stroke="#4e79a7" stroke-width="1.3"/>
<line x1="388.25" y1="474.0" x2="404.25" y2="474.0" stroke="#4e79a7" stroke-width="1.3"/>
<line x1="388.25" y1="332.0" x2="404.25" y2="332.0" stroke="#4e79a7" stroke-width="1.3"/>
<rect x="382.25" y="406.3411741554737" width="28" height="67.65882584452629" fill="#4e79a7" fill-opacity="0.22" stroke="#4e79a7" stroke-width="1.3"/>
<line x1="382.25" y1="474.0" x2="410.25" y2="474.0" stroke="#4e79a7" stroke-width="1.8"/>
<text x="396.25" y="506" text-anchor="middle" font-size="9" font-family="Arial" fill="#777777">n=7</text>
<text x="448.75" y="492" text-anchor="middle" font-size="10" font-family="Arial" fill="#444444">1-N</text>
<line x1="448.75" y1="474.0" x2="448.75" y2="332.0" stroke="#f28e2b" stroke-width="1.3"/>
<line x1="440.75" y1="474.0" x2="456.75" y2="474.0" stroke="#f28e2b" stroke-width="1.3"/>
<line x1="440.75" y1="332.0" x2="456.75" y2="332.0" stroke="#f28e2b" stroke-width="1.3"/>
<rect x="434.75" y="334.29032251238823" width="28" height="54.50967410206795" fill="#f28e2b" fill-opacity="0.22" stroke="#f28e2b" stroke-width="1.3"/>
<line x1="434.75" y1="359.89285653829575" x2="462.75" y2="359.89285653829575" stroke="#f28e2b" stroke-width="1.8"/>
<text x="448.75" y="506" text-anchor="middle" font-size="9" font-family="Arial" fill="#777777">n=22</text>
<text x="501.25" y="492" text-anchor="middle" font-size="10" font-family="Arial" fill="#444444">M-1</text>
<line x1="501.25" y1="474.0" x2="501.25" y2="369.86666440963745" stroke="#59a14f" stroke-width="1.3"/>
<line x1="493.25" y1="474.0" x2="509.25" y2="474.0" stroke="#59a14f" stroke-width="1.3"/>
<line x1="493.25" y1="369.86666440963745" x2="509.25" y2="369.86666440963745" stroke="#59a14f" stroke-width="1.3"/>
<rect x="487.25" y="425.082423299551" width="28" height="48.91757670044899" fill="#59a14f" fill-opacity="0.22" stroke="#59a14f" stroke-width="1.3"/>
<line x1="487.25" y1="468.0461217984557" x2="515.25" y2="468.0461217984557" stroke="#59a14f" stroke-width="1.8"/>
<text x="501.25" y="506" text-anchor="middle" font-size="9" font-family="Arial" fill="#777777">n=63</text>
<text x="553.75" y="492" text-anchor="middle" font-size="10" font-family="Arial" fill="#444444">M-N</text>
<line x1="553.75" y1="474.0" x2="553.75" y2="332.0" stroke="#e15759" stroke-width="1.3"/>
<line x1="545.75" y1="474.0" x2="561.75" y2="474.0" stroke="#e15759" stroke-width="1.3"/>
<line x1="545.75" y1="332.0" x2="561.75" y2="332.0" stroke="#e15759" stroke-width="1.3"/>
<rect x="539.75" y="374.7613651752472" width="28" height="88.84839130938053" fill="#e15759" fill-opacity="0.22" stroke="#e15759" stroke-width="1.3"/>
<line x1="539.75" y1="423.5567935705185" x2="567.75" y2="423.5567935705185" stroke="#e15759" stroke-width="1.8"/>
<text x="553.75" y="506" text-anchor="middle" font-size="9" font-family="Arial" fill="#777777">n=89</text>
<rect x="616" y="292" width="280" height="230" fill="white" stroke="#d9d9d9" stroke-width="1"/>
<text x="626" y="314" font-size="13" font-family="Arial" fill="#111111">Delta | tail | &gt;= 10</text>
<line x1="666" y1="474.0" x2="876" y2="474.0" stroke="#ededed" stroke-width="1"/>
<text x="658" y="478.0" text-anchor="end" font-size="10" font-family="Arial" fill="#666666">0.00</text>
<line x1="666" y1="438.5" x2="876" y2="438.5" stroke="#ededed" stroke-width="1"/>
<text x="658" y="442.5" text-anchor="end" font-size="10" font-family="Arial" fill="#666666">0.25</text>
<line x1="666" y1="403.0" x2="876" y2="403.0" stroke="#ededed" stroke-width="1"/>
<text x="658" y="407.0" text-anchor="end" font-size="10" font-family="Arial" fill="#666666">0.50</text>
<line x1="666" y1="367.5" x2="876" y2="367.5" stroke="#ededed" stroke-width="1"/>
<text x="658" y="371.5" text-anchor="end" font-size="10" font-family="Arial" fill="#666666">0.75</text>
<line x1="666" y1="332.0" x2="876" y2="332.0" stroke="#ededed" stroke-width="1"/>
<text x="658" y="336.0" text-anchor="end" font-size="10" font-family="Arial" fill="#666666">1.00</text>
<line x1="666" y1="474" x2="876" y2="474" stroke="#999999" stroke-width="1.1"/>
<text x="692.25" y="492" text-anchor="middle" font-size="10" font-family="Arial" fill="#444444">1-1</text>
<line x1="692.25" y1="474.0" x2="692.25" y2="388.8" stroke="#4e79a7" stroke-width="1.3"/>
<line x1="684.25" y1="474.0" x2="700.25" y2="474.0" stroke="#4e79a7" stroke-width="1.3"/>
<line x1="684.25" y1="388.8" x2="700.25" y2="388.8" stroke="#4e79a7" stroke-width="1.3"/>
<rect x="678.25" y="406.34117647058827" width="28" height="67.65882352941173" fill="#4e79a7" fill-opacity="0.22" stroke="#4e79a7" stroke-width="1.3"/>
<line x1="678.25" y1="474.0" x2="706.25" y2="474.0" stroke="#4e79a7" stroke-width="1.8"/>
<text x="692.25" y="506" text-anchor="middle" font-size="9" font-family="Arial" fill="#777777">n=7</text>
<text x="744.75" y="492" text-anchor="middle" font-size="10" font-family="Arial" fill="#444444">1-N</text>
<line x1="744.75" y1="474.0" x2="744.75" y2="332.0" stroke="#f28e2b" stroke-width="1.3"/>
<line x1="736.75" y1="474.0" x2="752.75" y2="474.0" stroke="#f28e2b" stroke-width="1.3"/>
<line x1="736.75" y1="332.0" x2="752.75" y2="332.0" stroke="#f28e2b" stroke-width="1.3"/>
<rect x="730.75" y="395.3928571428571" width="28" height="24.4696428571429" fill="#f28e2b" fill-opacity="0.22" stroke="#f28e2b" stroke-width="1.3"/>
<line x1="730.75" y1="416.55454545454546" x2="758.75" y2="416.55454545454546" stroke="#f28e2b" stroke-width="1.8"/>
<text x="744.75" y="506" text-anchor="middle" font-size="9" font-family="Arial" fill="#777777">n=22</text>
<text x="797.25" y="492" text-anchor="middle" font-size="10" font-family="Arial" fill="#444444">M-1</text>
<line x1="797.25" y1="474.0" x2="797.25" y2="407.73333333333335" stroke="#59a14f" stroke-width="1.3"/>
<line x1="789.25" y1="474.0" x2="805.25" y2="474.0" stroke="#59a14f" stroke-width="1.3"/>
<line x1="789.25" y1="407.73333333333335" x2="805.25" y2="407.73333333333335" stroke="#59a14f" stroke-width="1.3"/>
<rect x="783.25" y="443.20299145299145" width="28" height="30.797008547008545" fill="#59a14f" fill-opacity="0.22" stroke="#59a14f" stroke-width="1.3"/>
<line x1="783.25" y1="470.40506329113924" x2="811.25" y2="470.40506329113924" stroke="#59a14f" stroke-width="1.8"/>
<text x="797.25" y="506" text-anchor="middle" font-size="9" font-family="Arial" fill="#777777">n=63</text>
<text x="849.75" y="492" text-anchor="middle" font-size="10" font-family="Arial" fill="#444444">M-N</text>
<line x1="849.75" y1="474.0" x2="849.75" y2="349.75" stroke="#e15759" stroke-width="1.3"/>
<line x1="841.75" y1="474.0" x2="857.75" y2="474.0" stroke="#e15759" stroke-width="1.3"/>
<line x1="841.75" y1="349.75" x2="857.75" y2="349.75" stroke="#e15759" stroke-width="1.3"/>
<rect x="835.75" y="423.88235294117646" width="28" height="42.835595776772266" fill="#e15759" fill-opacity="0.22" stroke="#e15759" stroke-width="1.3"/>
<line x1="835.75" y1="445.6" x2="863.75" y2="445.6" stroke="#e15759" stroke-width="1.8"/>
<text x="849.75" y="506" text-anchor="middle" font-size="9" font-family="Arial" fill="#777777">n=89</text>
</svg>
