<svg xmlns="http://www.w3.org/2000/svg" width="875" height="318" viewBox="0 0 875 318">
<rect width="100%" height="100%" fill="white"/>
<rect x="10" y="10" width="855" height="34" fill="#DDEAF6" stroke="#cfcfcf" stroke-width="1"/>
<text x="20" y="32.0" text-anchor="start" font-family="Arial" font-size="16" font-weight="700" fill="#222222">Inverse-Like Support and Predictive Stability</text>
<rect x="10" y="44" width="90" height="36" fill="#f5f5f5" stroke="#cfcfcf" stroke-width="1"/>
<text x="20" y="67.0" text-anchor="start" font-family="Arial" font-size="13" font-weight="700" fill="#222222">Model</text>
<rect x="100" y="44" width="335" height="36" fill="#f5f5f5" stroke="#cfcfcf" stroke-width="1"/>
<text x="110" y="67.0" text-anchor="start" font-family="Arial" font-size="13" font-weight="700" fill="#222222">Relations</text>
<rect x="435" y="44" width="70" height="36" fill="#f5f5f5" stroke="#cfcfcf" stroke-width="1"/>
<text x="470.0" y="67.0" text-anchor="middle" font-family="Arial" font-size="13" font-weight="700" fill="#222222">n_rel</text>
<rect x="505" y="44" width="95" height="36" fill="#f5f5f5" stroke="#cfcfcf" stroke-width="1"/>
<text x="552.5" y="67.0" text-anchor="middle" font-family="Arial" font-size="13" font-weight="700" fill="#222222">test triples</text>
<rect x="600" y="44" width="95" height="36" fill="#f5f5f5" stroke="#cfcfcf" stroke-width="1"/>
<text x="647.5" y="67.0" text-anchor="middle" font-family="Arial" font-size="13" font-weight="700" fill="#222222">Hits@10</text>
<rect x="695" y="44" width="85" height="36" fill="#f5f5f5" stroke="#cfcfcf" stroke-width="1"/>
<text x="737.5" y="67.0" text-anchor="middle" font-family="Arial" font-size="13" font-weight="700" fill="#222222">Alpha</text>
<rect x="780" y="44" width="85" height="36" fill="#f5f5f5" stroke="#cfcfcf" stroke-width="1"/>
<text x="822.5" y="67.0" text-anchor="middle" font-family="Arial" font-size="13" font-weight="700" fill="#222222">Delta</text>
<rect x="10" y="80" width="90" height="36" fill="#f3f3f3" stroke="#cfcfcf" stroke-width="1"/>
<text x="20" y="103.0" text-anchor="start" font-family="Arial" font-size="12" font-weight="400" fill="#222222">RotatE</text>
<rect x="100" y="80" width="335" height="36" fill="#f3f3f3" stroke="#cfcfcf" stroke-width="1"/>
<text x="110" y="103.0" text-anchor="start" font-family="Arial" font-size="12" font-weight="400" fill="#222222">All relations (global baseline)</text>
<rect x="435" y="80" width="70" height="36" fill="#f3f3f3" stroke="#cfcfcf" stroke-width="1"/>
<text x="470.0" y="103.0" text-anchor="middle" font-family="Arial" font-size="12" font-weight="400" fill="#222222">182</text>
<rect x="505" y="80" width="95" height="36" fill="#f3f3f3" stroke="#cfcfcf" stroke-width="1"/>
<text x="552.5" y="103.0" text-anchor="middle" font-family="Arial" font-size="12" font-weight="400" fill="#222222">20262</text>
<rect x="600" y="80" width="95" height="36" fill="#f3f3f3" stroke="#cfcfcf" stroke-width="1"/>
<text x="647.5" y="103.0" text-anchor="middle" font-family="Arial" font-size="12" font-weight="400" fill="#222222">0.5797</text>
<rect x="695" y="80" width="85" height="36" fill="#f3f3f3" stroke="#cfcfcf" stroke-width="1"/>
<text x="737.5" y="103.0" text-anchor="middle" font-family="Arial" font-size="12" font-weight="400" fill="#222222">0.1630</text>
<rect x="780" y="80" width="85" height="36" fill="#f3f3f3" stroke="#cfcfcf" stroke-width="1"/>
<text x="822.5" y="103.0" text-anchor="middle" font-family="Arial" font-size="12" font-weight="400" fill="#222222">0.0640</text>
<rect x="10" y="116" width="90" height="36" fill="#ffffff" stroke="#cfcfcf" stroke-width="1"/>
<text x="20" y="139.0" text-anchor="start" font-family="Arial" font-size="12" font-weight="400" fill="#222222">RotatE</text>
<rect x="100" y="116" width="335" height="36" fill="#ffffff" stroke="#cfcfcf" stroke-width="1"/>
<text x="110" y="139.0" text-anchor="start" font-family="Arial" font-size="12" font-weight="400" fill="#222222">High mutual inverse-like strength (&gt; 0.5)</text>
<rect x="435" y="116" width="70" height="36" fill="#ffffff" stroke="#cfcfcf" stroke-width="1"/>
<text x="470.0" y="139.0" text-anchor="middle" font-family="Arial" font-size="12" font-weight="400" fill="#222222">10</text>
<rect x="505" y="116" width="95" height="36" fill="#ffffff" stroke="#cfcfcf" stroke-width="1"/>
<text x="552.5" y="139.0" text-anchor="middle" font-family="Arial" font-size="12" font-weight="400" fill="#222222">494</text>
<rect x="600" y="116" width="95" height="36" fill="#ffffff" stroke="#cfcfcf" stroke-width="1"/>
<text x="647.5" y="139.0" text-anchor="middle" font-family="Arial" font-size="12" font-weight="400" fill="#222222">0.6838</text>
<rect x="695" y="116" width="85" height="36" fill="#ffffff" stroke="#cfcfcf" stroke-width="1"/>
<text x="737.5" y="139.0" text-anchor="middle" font-family="Arial" font-size="12" font-weight="400" fill="#222222">0.0971</text>
<rect x="780" y="116" width="85" height="36" fill="#ffffff" stroke="#cfcfcf" stroke-width="1"/>
<text x="822.5" y="139.0" text-anchor="middle" font-family="Arial" font-size="12" font-weight="400" fill="#222222">0.0627</text>
<rect x="10" y="152" width="90" height="36" fill="#ffffff" stroke="#cfcfcf" stroke-width="1"/>
<text x="20" y="175.0" text-anchor="start" font-family="Arial" font-size="12" font-weight="400" fill="#222222">RotatE</text>
<rect x="100" y="152" width="335" height="36" fill="#ffffff" stroke="#cfcfcf" stroke-width="1"/>
<text x="110" y="175.0" text-anchor="start" font-family="Arial" font-size="12" font-weight="400" fill="#222222">High inverse-like clarity (&gt; 0.5)</text>
<rect x="435" y="152" width="70" height="36" fill="#ffffff" stroke="#cfcfcf" stroke-width="1"/>
<text x="470.0" y="175.0" text-anchor="middle" font-family="Arial" font-size="12" font-weight="400" fill="#222222">5</text>
<rect x="505" y="152" width="95" height="36" fill="#ffffff" stroke="#cfcfcf" stroke-width="1"/>
<text x="552.5" y="175.0" text-anchor="middle" font-family="Arial" font-size="12" font-weight="400" fill="#222222">61</text>
<rect x="600" y="152" width="95" height="36" fill="#ffffff" stroke="#cfcfcf" stroke-width="1"/>
<text x="647.5" y="175.0" text-anchor="middle" font-family="Arial" font-size="12" font-weight="400" fill="#222222">0.8000</text>
<rect x="695" y="152" width="85" height="36" fill="#ffffff" stroke="#cfcfcf" stroke-width="1"/>
<text x="737.5" y="175.0" text-anchor="middle" font-family="Arial" font-size="12" font-weight="400" fill="#222222">0.0000</text>
<rect x="780" y="152" width="85" height="36" fill="#ffffff" stroke="#cfcfcf" stroke-width="1"/>
<text x="822.5" y="175.0" text-anchor="middle" font-family="Arial" font-size="12" font-weight="400" fill="#222222">0.0000</text>
<rect x="10" y="188" width="855" height="12" fill="#ffffff" stroke="#cfcfcf" stroke-width="1"/>
<text x="20" y="199.0" text-anchor="start" font-family="Arial" font-size="1" font-weight="400" fill="#222222"></text>
<rect x="10" y="200" width="90" height="36" fill="#f3f3f3" stroke="#cfcfcf" stroke-width="1"/>
<text x="20" y="223.0" text-anchor="start" font-family="Arial" font-size="12" font-weight="400" fill="#222222">TransE</text>
<rect x="100" y="200" width="335" height="36" fill="#f3f3f3" stroke="#cfcfcf" stroke-width="1"/>
<text x="110" y="223.0" text-anchor="start" font-family="Arial" font-size="12" font-weight="400" fill="#222222">All relations (global baseline)</text>
<rect x="435" y="200" width="70" height="36" fill="#f3f3f3" stroke="#cfcfcf" stroke-width="1"/>
<text x="470.0" y="223.0" text-anchor="middle" font-family="Arial" font-size="12" font-weight="400" fill="#222222">182</text>
<rect x="505" y="200" width="95" height="36" fill="#f3f3f3" stroke="#cfcfcf" stroke-width="1"/>
<text x="552.5" y="223.0" text-anchor="middle" font-family="Arial" font-size="12" font-weight="400" fill="#222222">20262</text>
<rect x="600" y="200" width="95" height="36" fill="#f3f3f3" stroke="#cfcfcf" stroke-width="1"/>
<text x="647.5" y="223.0" text-anchor="middle" font-family="Arial" font-size="12" font-weight="400" fill="#222222">0.5585</text>
<rect x="695" y="200" width="85" height="36" fill="#f3f3f3" stroke="#cfcfcf" stroke-width="1"/>
<text x="737.5" y="223.0" text-anchor="middle" font-family="Arial" font-size="12" font-weight="400" fill="#222222">0.3850</text>
<rect x="780" y="200" width="85" height="36" fill="#f3f3f3" stroke="#cfcfcf" stroke-width="1"/>
<text x="822.5" y="223.0" text-anchor="middle" font-family="Arial" font-size="12" font-weight="400" fill="#222222">0.1450</text>
<rect x="10" y="236" width="90" height="36" fill="#ffffff" stroke="#cfcfcf" stroke-width="1"/>
<text x="20" y="259.0" text-anchor="start" font-family="Arial" font-size="12" font-weight="400" fill="#222222">TransE</text>
<rect x="100" y="236" width="335" height="36" fill="#ffffff" stroke="#cfcfcf" stroke-width="1"/>
<text x="110" y="259.0" text-anchor="start" font-family="Arial" font-size="12" font-weight="400" fill="#222222">High mutual inverse-like strength (&gt; 0.5)</text>
<rect x="435" y="236" width="70" height="36" fill="#ffffff" stroke="#cfcfcf" stroke-width="1"/>
<text x="470.0" y="259.0" text-anchor="middle" font-family="Arial" font-size="12" font-weight="400" fill="#222222">10</text>
<rect x="505" y="236" width="95" height="36" fill="#ffffff" stroke="#cfcfcf" stroke-width="1"/>
<text x="552.5" y="259.0" text-anchor="middle" font-family="Arial" font-size="12" font-weight="400" fill="#222222">494</text>
<rect x="600" y="236" width="95" height="36" fill="#ffffff" stroke="#cfcfcf" stroke-width="1"/>
<text x="647.5" y="259.0" text-anchor="middle" font-family="Arial" font-size="12" font-weight="400" fill="#222222">0.6866</text>
<rect x="695" y="236" width="85" height="36" fill="#ffffff" stroke="#cfcfcf" stroke-width="1"/>
<text x="737.5" y="259.0" text-anchor="middle" font-family="Arial" font-size="12" font-weight="400" fill="#222222">0.1361</text>
<rect x="780" y="236" width="85" height="36" fill="#ffffff" stroke="#cfcfcf" stroke-width="1"/>
<text x="822.5" y="259.0" text-anchor="middle" font-family="Arial" font-size="12" font-weight="400" fill="#222222">0.0813</text>
<rect x="10" y="272" width="90" height="36" fill="#ffffff" stroke="#cfcfcf" stroke-width="1"/>
<text x="20" y="295.0" text-anchor="start" font-family="Arial" font-size="12" font-weight="400" fill="#222222">TransE</text>
<rect x="100" y="272" width="335" height="36" fill="#ffffff" stroke="#cfcfcf" stroke-width="1"/>
<text x="110" y="295.0" text-anchor="start" font-family="Arial" font-size="12" font-weight="400" fill="#222222">High inverse-like clarity (&gt; 0.5)</text>
<rect x="435" y="272" width="70" height="36" fill="#ffffff" stroke="#cfcfcf" stroke-width="1"/>
<text x="470.0" y="295.0" text-anchor="middle" font-family="Arial" font-size="12" font-weight="400" fill="#222222">5</text>
<rect x="505" y="272" width="95" height="36" fill="#ffffff" stroke="#cfcfcf" stroke-width="1"/>
<text x="552.5" y="295.0" text-anchor="middle" font-family="Arial" font-size="12" font-weight="400" fill="#222222">61</text>
<rect x="600" y="272" width="95" height="36" fill="#ffffff" stroke="#cfcfcf" stroke-width="1"/>
<text x="647.5" y="295.0" text-anchor="middle" font-family="Arial" font-size="12" font-weight="400" fill="#222222">0.8000</text>
<rect x="695" y="272" width="85" height="36" fill="#ffffff" stroke="#cfcfcf" stroke-width="1"/>
<text x="737.5" y="295.0" text-anchor="middle" font-family="Arial" font-size="12" font-weight="400" fill="#222222">0.0000</text>
<rect x="780" y="272" width="85" height="36" fill="#ffffff" stroke="#cfcfcf" stroke-width="1"/>
<text x="822.5" y="295.0" text-anchor="middle" font-family="Arial" font-size="12" font-weight="400" fill="#222222">0.0000</text>
</svg>
