<svg xmlns="http://www.w3.org/2000/svg" width="760" height="330" viewBox="0 0 760 330">
<rect width="100%" height="100%" fill="white"/>
<rect x="28" y="24" width="700" height="32" fill="#EBF2FA" stroke="#cfcfcf" stroke-width="1"/>
<text x="38" y="45.0" text-anchor="start" font-family="Arial" font-size="16" font-weight="700" fill="#222222">Bucket Comparison</text>
<rect x="28" y="56" width="90" height="34" fill="#f5f5f5" stroke="#cfcfcf" stroke-width="1"/>
<text x="38" y="78.0" text-anchor="start" font-family="Arial" font-size="13" font-weight="700" fill="#222222">Model</text>
<rect x="118" y="56" width="250" height="34" fill="#f5f5f5" stroke="#cfcfcf" stroke-width="1"/>
<text x="128" y="78.0" text-anchor="start" font-family="Arial" font-size="13" font-weight="700" fill="#222222">Group</text>
<rect x="368" y="56" width="60" height="34" fill="#f5f5f5" stroke="#cfcfcf" stroke-width="1"/>
<text x="398.0" y="78.0" text-anchor="middle" font-family="Arial" font-size="13" font-weight="700" fill="#222222">n</text>
<rect x="428" y="56" width="100" height="34" fill="#f5f5f5" stroke="#cfcfcf" stroke-width="1"/>
<text x="478.0" y="78.0" text-anchor="middle" font-family="Arial" font-size="13" font-weight="700" fill="#222222">Hits@10</text>
<rect x="528" y="56" width="100" height="34" fill="#f5f5f5" stroke="#cfcfcf" stroke-width="1"/>
<text x="578.0" y="78.0" text-anchor="middle" font-family="Arial" font-size="13" font-weight="700" fill="#222222">Alpha</text>
<rect x="628" y="56" width="100" height="34" fill="#f5f5f5" stroke="#cfcfcf" stroke-width="1"/>
<text x="678.0" y="78.0" text-anchor="middle" font-family="Arial" font-size="13" font-weight="700" fill="#222222">Delta</text>
<rect x="28" y="90" width="90" height="34" fill="white" stroke="#cfcfcf" stroke-width="1"/>
<text x="38" y="112.0" text-anchor="start" font-family="Arial" font-size="13" font-weight="400" fill="#222222">RotatE</text>
<rect x="118" y="90" width="250" height="34" fill="white" stroke="#cfcfcf" stroke-width="1"/>
<text x="128" y="112.0" text-anchor="start" font-family="Arial" font-size="13" font-weight="400" fill="#222222">Zero symmetry</text>
<rect x="368" y="90" width="60" height="34" fill="white" stroke="#cfcfcf" stroke-width="1"/>
<text x="398.0" y="112.0" text-anchor="middle" font-family="Arial" font-size="13" font-weight="400" fill="#222222">164</text>
<rect x="428" y="90" width="100" height="34" fill="white" stroke="#cfcfcf" stroke-width="1"/>
<text x="478.0" y="112.0" text-anchor="middle" font-family="Arial" font-size="13" font-weight="400" fill="#222222">0.5815</text>
<rect x="528" y="90" width="100" height="34" fill="white" stroke="#cfcfcf" stroke-width="1"/>
<text x="578.0" y="112.0" text-anchor="middle" font-family="Arial" font-size="13" font-weight="400" fill="#222222">0.1283</text>
<rect x="628" y="90" width="100" height="34" fill="white" stroke="#cfcfcf" stroke-width="1"/>
<text x="678.0" y="112.0" text-anchor="middle" font-family="Arial" font-size="13" font-weight="400" fill="#222222">0.0636</text>
<rect x="28" y="124" width="90" height="34" fill="white" stroke="#cfcfcf" stroke-width="1"/>
<text x="38" y="146.0" text-anchor="start" font-family="Arial" font-size="13" font-weight="400" fill="#222222">RotatE</text>
<rect x="118" y="124" width="250" height="34" fill="white" stroke="#cfcfcf" stroke-width="1"/>
<text x="128" y="146.0" text-anchor="start" font-family="Arial" font-size="13" font-weight="400" fill="#222222">Weak nonzero symmetry (0, 0.5]</text>
<rect x="368" y="124" width="60" height="34" fill="white" stroke="#cfcfcf" stroke-width="1"/>
<text x="398.0" y="146.0" text-anchor="middle" font-family="Arial" font-size="13" font-weight="400" fill="#222222">6</text>
<rect x="428" y="124" width="100" height="34" fill="white" stroke="#cfcfcf" stroke-width="1"/>
<text x="478.0" y="146.0" text-anchor="middle" font-family="Arial" font-size="13" font-weight="400" fill="#222222">0.5047</text>
<rect x="528" y="124" width="100" height="34" fill="white" stroke="#cfcfcf" stroke-width="1"/>
<text x="578.0" y="146.0" text-anchor="middle" font-family="Arial" font-size="13" font-weight="400" fill="#222222">0.2089</text>
<rect x="628" y="124" width="100" height="34" fill="white" stroke="#cfcfcf" stroke-width="1"/>
<text x="678.0" y="146.0" text-anchor="middle" font-family="Arial" font-size="13" font-weight="400" fill="#222222">0.1129</text>
<rect x="28" y="158" width="90" height="34" fill="white" stroke="#cfcfcf" stroke-width="1"/>
<text x="38" y="180.0" text-anchor="start" font-family="Arial" font-size="13" font-weight="400" fill="#222222">RotatE</text>
<rect x="118" y="158" width="250" height="34" fill="white" stroke="#cfcfcf" stroke-width="1"/>
<text x="128" y="180.0" text-anchor="start" font-family="Arial" font-size="13" font-weight="400" fill="#222222">High symmetry (&gt; 0.5)</text>
<rect x="368" y="158" width="60" height="34" fill="white" stroke="#cfcfcf" stroke-width="1"/>
<text x="398.0" y="180.0" text-anchor="middle" font-family="Arial" font-size="13" font-weight="400" fill="#222222">12</text>
<rect x="428" y="158" width="100" height="34" fill="white" stroke="#cfcfcf" stroke-width="1"/>
<text x="478.0" y="180.0" text-anchor="middle" font-family="Arial" font-size="13" font-weight="400" fill="#222222">0.5924</text>
<rect x="528" y="158" width="100" height="34" fill="white" stroke="#cfcfcf" stroke-width="1"/>
<text x="578.0" y="180.0" text-anchor="middle" font-family="Arial" font-size="13" font-weight="400" fill="#222222">0.1618</text>
<rect x="628" y="158" width="100" height="34" fill="white" stroke="#cfcfcf" stroke-width="1"/>
<text x="678.0" y="180.0" text-anchor="middle" font-family="Arial" font-size="13" font-weight="400" fill="#222222">0.0848</text>
<rect x="28" y="192" width="700" height="8" fill="white"/>
<rect x="28" y="200" width="90" height="34" fill="white" stroke="#cfcfcf" stroke-width="1"/>
<text x="38" y="222.0" text-anchor="start" font-family="Arial" font-size="13" font-weight="400" fill="#222222">TransE</text>
<rect x="118" y="200" width="250" height="34" fill="white" stroke="#cfcfcf" stroke-width="1"/>
<text x="128" y="222.0" text-anchor="start" font-family="Arial" font-size="13" font-weight="400" fill="#222222">Zero symmetry</text>
<rect x="368" y="200" width="60" height="34" fill="white" stroke="#cfcfcf" stroke-width="1"/>
<text x="398.0" y="222.0" text-anchor="middle" font-family="Arial" font-size="13" font-weight="400" fill="#222222">164</text>
<rect x="428" y="200" width="100" height="34" fill="white" stroke="#cfcfcf" stroke-width="1"/>
<text x="478.0" y="222.0" text-anchor="middle" font-family="Arial" font-size="13" font-weight="400" fill="#222222">0.5605</text>
<rect x="528" y="200" width="100" height="34" fill="white" stroke="#cfcfcf" stroke-width="1"/>
<text x="578.0" y="222.0" text-anchor="middle" font-family="Arial" font-size="13" font-weight="400" fill="#222222">0.3307</text>
<rect x="628" y="200" width="100" height="34" fill="white" stroke="#cfcfcf" stroke-width="1"/>
<text x="678.0" y="222.0" text-anchor="middle" font-family="Arial" font-size="13" font-weight="400" fill="#222222">0.1838</text>
<rect x="28" y="234" width="90" height="34" fill="white" stroke="#cfcfcf" stroke-width="1"/>
<text x="38" y="256.0" text-anchor="start" font-family="Arial" font-size="13" font-weight="400" fill="#222222">TransE</text>
<rect x="118" y="234" width="250" height="34" fill="white" stroke="#cfcfcf" stroke-width="1"/>
<text x="128" y="256.0" text-anchor="start" font-family="Arial" font-size="13" font-weight="400" fill="#222222">Weak nonzero symmetry (0, 0.5]</text>
<rect x="368" y="234" width="60" height="34" fill="white" stroke="#cfcfcf" stroke-width="1"/>
<text x="398.0" y="256.0" text-anchor="middle" font-family="Arial" font-size="13" font-weight="400" fill="#222222">6</text>
<rect x="428" y="234" width="100" height="34" fill="white" stroke="#cfcfcf" stroke-width="1"/>
<text x="478.0" y="256.0" text-anchor="middle" font-family="Arial" font-size="13" font-weight="400" fill="#222222">0.4725</text>
<rect x="528" y="234" width="100" height="34" fill="white" stroke="#cfcfcf" stroke-width="1"/>
<text x="578.0" y="256.0" text-anchor="middle" font-family="Arial" font-size="13" font-weight="400" fill="#222222">0.4436</text>
<rect x="628" y="234" width="100" height="34" fill="white" stroke="#cfcfcf" stroke-width="1"/>
<text x="678.0" y="256.0" text-anchor="middle" font-family="Arial" font-size="13" font-weight="400" fill="#222222">0.2736</text>
<rect x="28" y="268" width="90" height="34" fill="white" stroke="#cfcfcf" stroke-width="1"/>
<text x="38" y="290.0" text-anchor="start" font-family="Arial" font-size="13" font-weight="400" fill="#222222">TransE</text>
<rect x="118" y="268" width="250" height="34" fill="white" stroke="#cfcfcf" stroke-width="1"/>
<text x="128" y="290.0" text-anchor="start" font-family="Arial" font-size="13" font-weight="400" fill="#222222">High symmetry (&gt; 0.5)</text>
<rect x="368" y="268" width="60" height="34" fill="white" stroke="#cfcfcf" stroke-width="1"/>
<text x="398.0" y="290.0" text-anchor="middle" font-family="Arial" font-size="13" font-weight="400" fill="#222222">12</text>
<rect x="428" y="268" width="100" height="34" fill="white" stroke="#cfcfcf" stroke-width="1"/>
<text x="478.0" y="290.0" text-anchor="middle" font-family="Arial" font-size="13" font-weight="400" fill="#222222">0.5742</text>
<rect x="528" y="268" width="100" height="34" fill="white" stroke="#cfcfcf" stroke-width="1"/>
<text x="578.0" y="290.0" text-anchor="middle" font-family="Arial" font-size="13" font-weight="400" fill="#222222">0.3512</text>
<rect x="628" y="268" width="100" height="34" fill="white" stroke="#cfcfcf" stroke-width="1"/>
<text x="678.0" y="290.0" text-anchor="middle" font-family="Arial" font-size="13" font-weight="400" fill="#222222">0.2119</text>
</svg>
