<svg xmlns="http://www.w3.org/2000/svg" width="1020" height="500" viewBox="0 0 1020 500">
<rect width="100%" height="100%" fill="white"/>
<text x="28" y="30" font-family="Arial" font-size="22" font-weight="700" fill="#111111">Symmetry Summary</text>
<rect x="28" y="54" width="890" height="32" fill="#eaf2fb" stroke="#cfcfcf" stroke-width="1"/>
<text x="38" y="75.0" text-anchor="start" font-family="Arial" font-size="16" font-weight="700" fill="#222222">Global Trend (threshold = 10)</text>
<rect x="28" y="86" width="90" height="34" fill="#f5f5f5" stroke="#cfcfcf" stroke-width="1"/>
<text x="38" y="108.0" text-anchor="start" font-family="Arial" font-size="14" font-weight="700" fill="#222222">Model</text>
<rect x="118" y="86" width="60" height="34" fill="#f5f5f5" stroke="#cfcfcf" stroke-width="1"/>
<text x="148.0" y="108.0" text-anchor="middle" font-family="Arial" font-size="14" font-weight="700" fill="#222222">n</text>
<rect x="178" y="86" width="145" height="34" fill="#f5f5f5" stroke="#cfcfcf" stroke-width="1"/>
<text x="250.5" y="108.0" text-anchor="middle" font-family="Arial" font-size="14" font-weight="700" fill="#222222">Spearman(Hits)</text>
<rect x="323" y="86" width="150" height="34" fill="#f5f5f5" stroke="#cfcfcf" stroke-width="1"/>
<text x="398.0" y="108.0" text-anchor="middle" font-family="Arial" font-size="14" font-weight="700" fill="#222222">Spearman(Alpha)</text>
<rect x="473" y="86" width="150" height="34" fill="#f5f5f5" stroke="#cfcfcf" stroke-width="1"/>
<text x="548.0" y="108.0" text-anchor="middle" font-family="Arial" font-size="14" font-weight="700" fill="#222222">Spearman(Delta)</text>
<rect x="623" y="86" width="295" height="34" fill="#f5f5f5" stroke="#cfcfcf" stroke-width="1"/>
<text x="633" y="108.0" text-anchor="start" font-family="Arial" font-size="14" font-weight="700" fill="#222222">Reading</text>
<rect x="28" y="120" width="90" height="34" fill="white" stroke="#cfcfcf" stroke-width="1"/>
<text x="38" y="142.0" text-anchor="start" font-family="Arial" font-size="14" font-weight="400" fill="#222222">RotatE</text>
<rect x="118" y="120" width="60" height="34" fill="white" stroke="#cfcfcf" stroke-width="1"/>
<text x="148.0" y="142.0" text-anchor="middle" font-family="Arial" font-size="14" font-weight="400" fill="#222222">182</text>
<rect x="178" y="120" width="145" height="34" fill="white" stroke="#cfcfcf" stroke-width="1"/>
<text x="250.5" y="142.0" text-anchor="middle" font-family="Arial" font-size="14" font-weight="400" fill="#222222">0.0122</text>
<rect x="323" y="120" width="150" height="34" fill="white" stroke="#cfcfcf" stroke-width="1"/>
<text x="398.0" y="142.0" text-anchor="middle" font-family="Arial" font-size="14" font-weight="400" fill="#222222">0.1310</text>
<rect x="473" y="120" width="150" height="34" fill="white" stroke="#cfcfcf" stroke-width="1"/>
<text x="548.0" y="142.0" text-anchor="middle" font-family="Arial" font-size="14" font-weight="400" fill="#222222">0.1292</text>
<rect x="623" y="120" width="295" height="34" fill="white" stroke="#cfcfcf" stroke-width="1"/>
<text x="633" y="142.0" text-anchor="start" font-family="Arial" font-size="14" font-weight="400" fill="#222222">Near-zero global association</text>
<rect x="28" y="154" width="90" height="34" fill="white" stroke="#cfcfcf" stroke-width="1"/>
<text x="38" y="176.0" text-anchor="start" font-family="Arial" font-size="14" font-weight="400" fill="#222222">TransE</text>
<rect x="118" y="154" width="60" height="34" fill="white" stroke="#cfcfcf" stroke-width="1"/>
<text x="148.0" y="176.0" text-anchor="middle" font-family="Arial" font-size="14" font-weight="400" fill="#222222">182</text>
<rect x="178" y="154" width="145" height="34" fill="white" stroke="#cfcfcf" stroke-width="1"/>
<text x="250.5" y="176.0" text-anchor="middle" font-family="Arial" font-size="14" font-weight="400" fill="#222222">0.0117</text>
<rect x="323" y="154" width="150" height="34" fill="white" stroke="#cfcfcf" stroke-width="1"/>
<text x="398.0" y="176.0" text-anchor="middle" font-family="Arial" font-size="14" font-weight="400" fill="#222222">0.0425</text>
<rect x="473" y="154" width="150" height="34" fill="white" stroke="#cfcfcf" stroke-width="1"/>
<text x="548.0" y="176.0" text-anchor="middle" font-family="Arial" font-size="14" font-weight="400" fill="#222222">0.0520</text>
<rect x="623" y="154" width="295" height="34" fill="white" stroke="#cfcfcf" stroke-width="1"/>
<text x="633" y="176.0" text-anchor="start" font-family="Arial" font-size="14" font-weight="400" fill="#222222">Near-zero global association</text>
<rect x="28" y="212" width="890" height="32" fill="#f9efe2" stroke="#cfcfcf" stroke-width="1"/>
<text x="38" y="233.0" text-anchor="start" font-family="Arial" font-size="16" font-weight="700" fill="#222222">Bucket Comparison (threshold = 10)</text>
<rect x="28" y="244" width="90" height="34" fill="#f5f5f5" stroke="#cfcfcf" stroke-width="1"/>
<text x="38" y="266.0" text-anchor="start" font-family="Arial" font-size="13" font-weight="700" fill="#222222">Model</text>
<rect x="118" y="244" width="180" height="34" fill="#f5f5f5" stroke="#cfcfcf" stroke-width="1"/>
<text x="128" y="266.0" text-anchor="start" font-family="Arial" font-size="13" font-weight="700" fill="#222222">Group</text>
<rect x="298" y="244" width="60" height="34" fill="#f5f5f5" stroke="#cfcfcf" stroke-width="1"/>
<text x="328.0" y="266.0" text-anchor="middle" font-family="Arial" font-size="13" font-weight="700" fill="#222222">n</text>
<rect x="358" y="244" width="100" height="34" fill="#f5f5f5" stroke="#cfcfcf" stroke-width="1"/>
<text x="408.0" y="266.0" text-anchor="middle" font-family="Arial" font-size="13" font-weight="700" fill="#222222">Hits@10</text>
<rect x="458" y="244" width="100" height="34" fill="#f5f5f5" stroke="#cfcfcf" stroke-width="1"/>
<text x="508.0" y="266.0" text-anchor="middle" font-family="Arial" font-size="13" font-weight="700" fill="#222222">Alpha</text>
<rect x="558" y="244" width="100" height="34" fill="#f5f5f5" stroke="#cfcfcf" stroke-width="1"/>
<text x="608.0" y="266.0" text-anchor="middle" font-family="Arial" font-size="13" font-weight="700" fill="#222222">Delta</text>
<rect x="658" y="244" width="260" height="34" fill="#f5f5f5" stroke="#cfcfcf" stroke-width="1"/>
<text x="668" y="266.0" text-anchor="start" font-family="Arial" font-size="13" font-weight="700" fill="#222222">Reading</text>
<rect x="28" y="278" width="90" height="34" fill="white" stroke="#cfcfcf" stroke-width="1"/>
<text x="38" y="300.0" text-anchor="start" font-family="Arial" font-size="13" font-weight="400" fill="#222222">RotatE</text>
<rect x="118" y="278" width="180" height="34" fill="white" stroke="#cfcfcf" stroke-width="1"/>
<text x="128" y="300.0" text-anchor="start" font-family="Arial" font-size="13" font-weight="400" fill="#222222">Zero symmetry</text>
<rect x="298" y="278" width="60" height="34" fill="white" stroke="#cfcfcf" stroke-width="1"/>
<text x="328.0" y="300.0" text-anchor="middle" font-family="Arial" font-size="13" font-weight="400" fill="#222222">164</text>
<rect x="358" y="278" width="100" height="34" fill="white" stroke="#cfcfcf" stroke-width="1"/>
<text x="408.0" y="300.0" text-anchor="middle" font-family="Arial" font-size="13" font-weight="400" fill="#222222">0.5815</text>
<rect x="458" y="278" width="100" height="34" fill="white" stroke="#cfcfcf" stroke-width="1"/>
<text x="508.0" y="300.0" text-anchor="middle" font-family="Arial" font-size="13" font-weight="400" fill="#222222">0.2294</text>
<rect x="558" y="278" width="100" height="34" fill="white" stroke="#cfcfcf" stroke-width="1"/>
<text x="608.0" y="300.0" text-anchor="middle" font-family="Arial" font-size="13" font-weight="400" fill="#222222">0.1331</text>
<rect x="658" y="278" width="260" height="34" fill="white" stroke="#cfcfcf" stroke-width="1"/>
<text x="668" y="300.0" text-anchor="start" font-family="Arial" font-size="13" font-weight="400" fill="#222222">Reference group</text>
<rect x="28" y="312" width="90" height="34" fill="white" stroke="#cfcfcf" stroke-width="1"/>
<text x="38" y="334.0" text-anchor="start" font-family="Arial" font-size="13" font-weight="400" fill="#222222">RotatE</text>
<rect x="118" y="312" width="180" height="34" fill="white" stroke="#cfcfcf" stroke-width="1"/>
<text x="128" y="334.0" text-anchor="start" font-family="Arial" font-size="13" font-weight="400" fill="#222222">High symmetry (&gt; 0.5)</text>
<rect x="298" y="312" width="60" height="34" fill="white" stroke="#cfcfcf" stroke-width="1"/>
<text x="328.0" y="334.0" text-anchor="middle" font-family="Arial" font-size="13" font-weight="400" fill="#222222">12</text>
<rect x="358" y="312" width="100" height="34" fill="white" stroke="#cfcfcf" stroke-width="1"/>
<text x="408.0" y="334.0" text-anchor="middle" font-family="Arial" font-size="13" font-weight="400" fill="#222222">0.5924</text>
<rect x="458" y="312" width="100" height="34" fill="white" stroke="#cfcfcf" stroke-width="1"/>
<text x="508.0" y="334.0" text-anchor="middle" font-family="Arial" font-size="13" font-weight="400" fill="#222222">0.3735</text>
<rect x="558" y="312" width="100" height="34" fill="white" stroke="#cfcfcf" stroke-width="1"/>
<text x="608.0" y="334.0" text-anchor="middle" font-family="Arial" font-size="13" font-weight="400" fill="#222222">0.2341</text>
<rect x="658" y="312" width="260" height="34" fill="white" stroke="#cfcfcf" stroke-width="1"/>
<text x="668" y="334.0" text-anchor="start" font-family="Arial" font-size="13" font-weight="400" fill="#222222">Not cleaner than zero-symmetry</text>
<rect x="28" y="346" width="90" height="34" fill="#f3f3f3" stroke="#cfcfcf" stroke-width="1"/>
<text x="38" y="368.0" text-anchor="start" font-family="Arial" font-size="12" font-weight="400" fill="#444444">RotatE</text>
<rect x="118" y="346" width="180" height="34" fill="#f3f3f3" stroke="#cfcfcf" stroke-width="1"/>
<text x="128" y="368.0" text-anchor="start" font-family="Arial" font-size="12" font-weight="400" fill="#444444">Overall baseline</text>
<rect x="298" y="346" width="60" height="34" fill="#f3f3f3" stroke="#cfcfcf" stroke-width="1"/>
<text x="328.0" y="368.0" text-anchor="middle" font-family="Arial" font-size="12" font-weight="400" fill="#444444">-</text>
<rect x="358" y="346" width="100" height="34" fill="#f3f3f3" stroke="#cfcfcf" stroke-width="1"/>
<text x="408.0" y="368.0" text-anchor="middle" font-family="Arial" font-size="12" font-weight="400" fill="#444444">0.5200</text>
<rect x="458" y="346" width="100" height="34" fill="#f3f3f3" stroke="#cfcfcf" stroke-width="1"/>
<text x="508.0" y="368.0" text-anchor="middle" font-family="Arial" font-size="12" font-weight="400" fill="#444444">0.1630</text>
<rect x="558" y="346" width="100" height="34" fill="#f3f3f3" stroke="#cfcfcf" stroke-width="1"/>
<text x="608.0" y="368.0" text-anchor="middle" font-family="Arial" font-size="12" font-weight="400" fill="#444444">0.0640</text>
<rect x="658" y="346" width="260" height="34" fill="#f3f3f3" stroke="#cfcfcf" stroke-width="1"/>
<text x="668" y="368.0" text-anchor="start" font-family="Arial" font-size="12" font-weight="400" fill="#444444">Overall reference row</text>
<line x1="28" y1="380" x2="918" y2="380" stroke="#9e9e9e" stroke-width="2.2"/>
<rect x="28" y="380" width="90" height="34" fill="white" stroke="#cfcfcf" stroke-width="1"/>
<text x="38" y="402.0" text-anchor="start" font-family="Arial" font-size="13" font-weight="400" fill="#222222">TransE</text>
<rect x="118" y="380" width="180" height="34" fill="white" stroke="#cfcfcf" stroke-width="1"/>
<text x="128" y="402.0" text-anchor="start" font-family="Arial" font-size="13" font-weight="400" fill="#222222">Zero symmetry</text>
<rect x="298" y="380" width="60" height="34" fill="white" stroke="#cfcfcf" stroke-width="1"/>
<text x="328.0" y="402.0" text-anchor="middle" font-family="Arial" font-size="13" font-weight="400" fill="#222222">164</text>
<rect x="358" y="380" width="100" height="34" fill="white" stroke="#cfcfcf" stroke-width="1"/>
<text x="408.0" y="402.0" text-anchor="middle" font-family="Arial" font-size="13" font-weight="400" fill="#222222">0.5605</text>
<rect x="458" y="380" width="100" height="34" fill="white" stroke="#cfcfcf" stroke-width="1"/>
<text x="508.0" y="402.0" text-anchor="middle" font-family="Arial" font-size="13" font-weight="400" fill="#222222">0.3307</text>
<rect x="558" y="380" width="100" height="34" fill="white" stroke="#cfcfcf" stroke-width="1"/>
<text x="608.0" y="402.0" text-anchor="middle" font-family="Arial" font-size="13" font-weight="400" fill="#222222">0.1838</text>
<rect x="658" y="380" width="260" height="34" fill="white" stroke="#cfcfcf" stroke-width="1"/>
<text x="668" y="402.0" text-anchor="start" font-family="Arial" font-size="13" font-weight="400" fill="#222222">Reference group</text>
<rect x="28" y="414" width="90" height="34" fill="white" stroke="#cfcfcf" stroke-width="1"/>
<text x="38" y="436.0" text-anchor="start" font-family="Arial" font-size="13" font-weight="400" fill="#222222">TransE</text>
<rect x="118" y="414" width="180" height="34" fill="white" stroke="#cfcfcf" stroke-width="1"/>
<text x="128" y="436.0" text-anchor="start" font-family="Arial" font-size="13" font-weight="400" fill="#222222">High symmetry (&gt; 0.5)</text>
<rect x="298" y="414" width="60" height="34" fill="white" stroke="#cfcfcf" stroke-width="1"/>
<text x="328.0" y="436.0" text-anchor="middle" font-family="Arial" font-size="13" font-weight="400" fill="#222222">12</text>
<rect x="358" y="414" width="100" height="34" fill="white" stroke="#cfcfcf" stroke-width="1"/>
<text x="408.0" y="436.0" text-anchor="middle" font-family="Arial" font-size="13" font-weight="400" fill="#222222">0.5742</text>
<rect x="458" y="414" width="100" height="34" fill="white" stroke="#cfcfcf" stroke-width="1"/>
<text x="508.0" y="436.0" text-anchor="middle" font-family="Arial" font-size="13" font-weight="400" fill="#222222">0.3512</text>
<rect x="558" y="414" width="100" height="34" fill="white" stroke="#cfcfcf" stroke-width="1"/>
<text x="608.0" y="436.0" text-anchor="middle" font-family="Arial" font-size="13" font-weight="400" fill="#222222">0.2119</text>
<rect x="658" y="414" width="260" height="34" fill="white" stroke="#cfcfcf" stroke-width="1"/>
<text x="668" y="436.0" text-anchor="start" font-family="Arial" font-size="13" font-weight="400" fill="#222222">Not cleaner than zero-symmetry</text>
<rect x="28" y="448" width="90" height="34" fill="#f3f3f3" stroke="#cfcfcf" stroke-width="1"/>
<text x="38" y="470.0" text-anchor="start" font-family="Arial" font-size="12" font-weight="400" fill="#444444">TransE</text>
<rect x="118" y="448" width="180" height="34" fill="#f3f3f3" stroke="#cfcfcf" stroke-width="1"/>
<text x="128" y="470.0" text-anchor="start" font-family="Arial" font-size="12" font-weight="400" fill="#444444">Overall baseline</text>
<rect x="298" y="448" width="60" height="34" fill="#f3f3f3" stroke="#cfcfcf" stroke-width="1"/>
<text x="328.0" y="470.0" text-anchor="middle" font-family="Arial" font-size="12" font-weight="400" fill="#444444">-</text>
<rect x="358" y="448" width="100" height="34" fill="#f3f3f3" stroke="#cfcfcf" stroke-width="1"/>
<text x="408.0" y="470.0" text-anchor="middle" font-family="Arial" font-size="12" font-weight="400" fill="#444444">0.4550</text>
<rect x="458" y="448" width="100" height="34" fill="#f3f3f3" stroke="#cfcfcf" stroke-width="1"/>
<text x="508.0" y="470.0" text-anchor="middle" font-family="Arial" font-size="12" font-weight="400" fill="#444444">0.3850</text>
<rect x="558" y="448" width="100" height="34" fill="#f3f3f3" stroke="#cfcfcf" stroke-width="1"/>
<text x="608.0" y="470.0" text-anchor="middle" font-family="Arial" font-size="12" font-weight="400" fill="#444444">0.1450</text>
<rect x="658" y="448" width="260" height="34" fill="#f3f3f3" stroke="#cfcfcf" stroke-width="1"/>
<text x="668" y="470.0" text-anchor="start" font-family="Arial" font-size="12" font-weight="400" fill="#444444">Overall reference row</text>
</svg>
