<svg xmlns="http://www.w3.org/2000/svg" width="810" height="500" viewBox="0 0 810 500">
<rect width="100%" height="100%" fill="white"/>
<text x="28" y="30" font-family="Arial" font-size="22" font-weight="700" fill="#111111">Symmetry Summary</text>
<rect x="28" y="54" width="595" height="32" fill="#2A6096" stroke="#cfcfcf" stroke-width="1"/>
<text x="38" y="75.0" text-anchor="start" font-family="Arial" font-size="16" font-weight="700" fill="white">Global Spearman Correlation</text>
<rect x="28" y="86" width="90" height="34" fill="#f5f5f5" stroke="#cfcfcf" stroke-width="1"/>
<text x="38" y="108.0" text-anchor="start" font-family="Arial" font-size="14" font-weight="700" fill="#222222">Model</text>
<rect x="118" y="86" width="60" height="34" fill="#f5f5f5" stroke="#cfcfcf" stroke-width="1"/>
<text x="148.0" y="108.0" text-anchor="middle" font-family="Arial" font-size="14" font-weight="700" fill="#222222">n</text>
<rect x="178" y="86" width="145" height="34" fill="#f5f5f5" stroke="#cfcfcf" stroke-width="1"/>
<text x="250.5" y="108.0" text-anchor="middle" font-family="Arial" font-size="14" font-weight="700" fill="#222222">Spearman(Hits)</text>
<rect x="323" y="86" width="150" height="34" fill="#f5f5f5" stroke="#cfcfcf" stroke-width="1"/>
<text x="398.0" y="108.0" text-anchor="middle" font-family="Arial" font-size="14" font-weight="700" fill="#222222">Spearman(Alpha)</text>
<rect x="473" y="86" width="150" height="34" fill="#f5f5f5" stroke="#cfcfcf" stroke-width="1"/>
<text x="548.0" y="108.0" text-anchor="middle" font-family="Arial" font-size="14" font-weight="700" fill="#222222">Spearman(Delta)</text>
<rect x="28" y="120" width="90" height="34" fill="white" stroke="#cfcfcf" stroke-width="1"/>
<text x="38" y="142.0" text-anchor="start" font-family="Arial" font-size="14" font-weight="400" fill="#222222">RotatE</text>
<rect x="118" y="120" width="60" height="34" fill="white" stroke="#cfcfcf" stroke-width="1"/>
<text x="148.0" y="142.0" text-anchor="middle" font-family="Arial" font-size="14" font-weight="400" fill="#222222">182</text>
<rect x="178" y="120" width="145" height="34" fill="white" stroke="#cfcfcf" stroke-width="1"/>
<text x="250.5" y="142.0" text-anchor="middle" font-family="Arial" font-size="14" font-weight="400" fill="#222222">0.0122</text>
<rect x="323" y="120" width="150" height="34" fill="white" stroke="#cfcfcf" stroke-width="1"/>
<text x="398.0" y="142.0" text-anchor="middle" font-family="Arial" font-size="14" font-weight="400" fill="#222222">0.1310</text>
<rect x="473" y="120" width="150" height="34" fill="white" stroke="#cfcfcf" stroke-width="1"/>
<text x="548.0" y="142.0" text-anchor="middle" font-family="Arial" font-size="14" font-weight="400" fill="#222222">0.1292</text>
<rect x="28" y="154" width="90" height="34" fill="white" stroke="#cfcfcf" stroke-width="1"/>
<text x="38" y="176.0" text-anchor="start" font-family="Arial" font-size="14" font-weight="400" fill="#222222">TransE</text>
<rect x="118" y="154" width="60" height="34" fill="white" stroke="#cfcfcf" stroke-width="1"/>
<text x="148.0" y="176.0" text-anchor="middle" font-family="Arial" font-size="14" font-weight="400" fill="#222222">182</text>
<rect x="178" y="154" width="145" height="34" fill="white" stroke="#cfcfcf" stroke-width="1"/>
<text x="250.5" y="176.0" text-anchor="middle" font-family="Arial" font-size="14" font-weight="400" fill="#222222">0.0117</text>
<rect x="323" y="154" width="150" height="34" fill="white" stroke="#cfcfcf" stroke-width="1"/>
<text x="398.0" y="176.0" text-anchor="middle" font-family="Arial" font-size="14" font-weight="400" fill="#222222">0.0425</text>
<rect x="473" y="154" width="150" height="34" fill="white" stroke="#cfcfcf" stroke-width="1"/>
<text x="548.0" y="176.0" text-anchor="middle" font-family="Arial" font-size="14" font-weight="400" fill="#222222">0.0520</text>
<rect x="28" y="212" width="700" height="32" fill="#EBF2FA" stroke="#cfcfcf" stroke-width="1"/>
<text x="38" y="233.0" text-anchor="start" font-family="Arial" font-size="16" font-weight="700" fill="#222222">Bucket Comparison</text>
<rect x="28" y="244" width="90" height="34" fill="#f5f5f5" stroke="#cfcfcf" stroke-width="1"/>
<text x="38" y="266.0" text-anchor="start" font-family="Arial" font-size="13" font-weight="700" fill="#222222">Model</text>
<rect x="118" y="244" width="250" height="34" fill="#f5f5f5" stroke="#cfcfcf" stroke-width="1"/>
<text x="128" y="266.0" text-anchor="start" font-family="Arial" font-size="13" font-weight="700" fill="#222222">Group</text>
<rect x="368" y="244" width="60" height="34" fill="#f5f5f5" stroke="#cfcfcf" stroke-width="1"/>
<text x="398.0" y="266.0" text-anchor="middle" font-family="Arial" font-size="13" font-weight="700" fill="#222222">n</text>
<rect x="428" y="244" width="100" height="34" fill="#f5f5f5" stroke="#cfcfcf" stroke-width="1"/>
<text x="478.0" y="266.0" text-anchor="middle" font-family="Arial" font-size="13" font-weight="700" fill="#222222">Hits@10</text>
<rect x="528" y="244" width="100" height="34" fill="#f5f5f5" stroke="#cfcfcf" stroke-width="1"/>
<text x="578.0" y="266.0" text-anchor="middle" font-family="Arial" font-size="13" font-weight="700" fill="#222222">Alpha</text>
<rect x="628" y="244" width="100" height="34" fill="#f5f5f5" stroke="#cfcfcf" stroke-width="1"/>
<text x="678.0" y="266.0" text-anchor="middle" font-family="Arial" font-size="13" font-weight="700" fill="#222222">Delta</text>
<rect x="28" y="278" width="90" height="34" fill="white" stroke="#cfcfcf" stroke-width="1"/>
<text x="38" y="300.0" text-anchor="start" font-family="Arial" font-size="13" font-weight="400" fill="#222222">RotatE</text>
<rect x="118" y="278" width="250" height="34" fill="white" stroke="#cfcfcf" stroke-width="1"/>
<text x="128" y="300.0" text-anchor="start" font-family="Arial" font-size="13" font-weight="400" fill="#222222">Zero symmetry</text>
<rect x="368" y="278" width="60" height="34" fill="white" stroke="#cfcfcf" stroke-width="1"/>
<text x="398.0" y="300.0" text-anchor="middle" font-family="Arial" font-size="13" font-weight="400" fill="#222222">164</text>
<rect x="428" y="278" width="100" height="34" fill="white" stroke="#cfcfcf" stroke-width="1"/>
<text x="478.0" y="300.0" text-anchor="middle" font-family="Arial" font-size="13" font-weight="400" fill="#222222">0.5815</text>
<rect x="528" y="278" width="100" height="34" fill="white" stroke="#cfcfcf" stroke-width="1"/>
<text x="578.0" y="300.0" text-anchor="middle" font-family="Arial" font-size="13" font-weight="400" fill="#222222">0.1283</text>
<rect x="628" y="278" width="100" height="34" fill="white" stroke="#cfcfcf" stroke-width="1"/>
<text x="678.0" y="300.0" text-anchor="middle" font-family="Arial" font-size="13" font-weight="400" fill="#222222">0.0636</text>
<rect x="28" y="312" width="90" height="34" fill="white" stroke="#cfcfcf" stroke-width="1"/>
<text x="38" y="334.0" text-anchor="start" font-family="Arial" font-size="13" font-weight="400" fill="#222222">RotatE</text>
<rect x="118" y="312" width="250" height="34" fill="white" stroke="#cfcfcf" stroke-width="1"/>
<text x="128" y="334.0" text-anchor="start" font-family="Arial" font-size="13" font-weight="400" fill="#222222">Weak nonzero symmetry (0, 0.5]</text>
<rect x="368" y="312" width="60" height="34" fill="white" stroke="#cfcfcf" stroke-width="1"/>
<text x="398.0" y="334.0" text-anchor="middle" font-family="Arial" font-size="13" font-weight="400" fill="#222222">6</text>
<rect x="428" y="312" width="100" height="34" fill="white" stroke="#cfcfcf" stroke-width="1"/>
<text x="478.0" y="334.0" text-anchor="middle" font-family="Arial" font-size="13" font-weight="400" fill="#222222">0.5047</text>
<rect x="528" y="312" width="100" height="34" fill="white" stroke="#cfcfcf" stroke-width="1"/>
<text x="578.0" y="334.0" text-anchor="middle" font-family="Arial" font-size="13" font-weight="400" fill="#222222">0.2089</text>
<rect x="628" y="312" width="100" height="34" fill="white" stroke="#cfcfcf" stroke-width="1"/>
<text x="678.0" y="334.0" text-anchor="middle" font-family="Arial" font-size="13" font-weight="400" fill="#222222">0.1129</text>
<rect x="28" y="346" width="90" height="34" fill="white" stroke="#cfcfcf" stroke-width="1"/>
<text x="38" y="368.0" text-anchor="start" font-family="Arial" font-size="13" font-weight="400" fill="#222222">RotatE</text>
<rect x="118" y="346" width="250" height="34" fill="white" stroke="#cfcfcf" stroke-width="1"/>
<text x="128" y="368.0" text-anchor="start" font-family="Arial" font-size="13" font-weight="400" fill="#222222">High symmetry (&gt; 0.5)</text>
<rect x="368" y="346" width="60" height="34" fill="white" stroke="#cfcfcf" stroke-width="1"/>
<text x="398.0" y="368.0" text-anchor="middle" font-family="Arial" font-size="13" font-weight="400" fill="#222222">12</text>
<rect x="428" y="346" width="100" height="34" fill="white" stroke="#cfcfcf" stroke-width="1"/>
<text x="478.0" y="368.0" text-anchor="middle" font-family="Arial" font-size="13" font-weight="400" fill="#222222">0.5924</text>
<rect x="528" y="346" width="100" height="34" fill="white" stroke="#cfcfcf" stroke-width="1"/>
<text x="578.0" y="368.0" text-anchor="middle" font-family="Arial" font-size="13" font-weight="400" fill="#222222">0.1618</text>
<rect x="628" y="346" width="100" height="34" fill="white" stroke="#cfcfcf" stroke-width="1"/>
<text x="678.0" y="368.0" text-anchor="middle" font-family="Arial" font-size="13" font-weight="400" fill="#222222">0.0848</text>
<rect x="28" y="380" width="700" height="8" fill="white"/>
<rect x="28" y="388" width="90" height="34" fill="white" stroke="#cfcfcf" stroke-width="1"/>
<text x="38" y="410.0" text-anchor="start" font-family="Arial" font-size="13" font-weight="400" fill="#222222">TransE</text>
<rect x="118" y="388" width="250" height="34" fill="white" stroke="#cfcfcf" stroke-width="1"/>
<text x="128" y="410.0" text-anchor="start" font-family="Arial" font-size="13" font-weight="400" fill="#222222">Zero symmetry</text>
<rect x="368" y="388" width="60" height="34" fill="white" stroke="#cfcfcf" stroke-width="1"/>
<text x="398.0" y="410.0" text-anchor="middle" font-family="Arial" font-size="13" font-weight="400" fill="#222222">164</text>
<rect x="428" y="388" width="100" height="34" fill="white" stroke="#cfcfcf" stroke-width="1"/>
<text x="478.0" y="410.0" text-anchor="middle" font-family="Arial" font-size="13" font-weight="400" fill="#222222">0.5605</text>
<rect x="528" y="388" width="100" height="34" fill="white" stroke="#cfcfcf" stroke-width="1"/>
<text x="578.0" y="410.0" text-anchor="middle" font-family="Arial" font-size="13" font-weight="400" fill="#222222">0.3307</text>
<rect x="628" y="388" width="100" height="34" fill="white" stroke="#cfcfcf" stroke-width="1"/>
<text x="678.0" y="410.0" text-anchor="middle" font-family="Arial" font-size="13" font-weight="400" fill="#222222">0.1838</text>
<rect x="28" y="422" width="90" height="34" fill="white" stroke="#cfcfcf" stroke-width="1"/>
<text x="38" y="444.0" text-anchor="start" font-family="Arial" font-size="13" font-weight="400" fill="#222222">TransE</text>
<rect x="118" y="422" width="250" height="34" fill="white" stroke="#cfcfcf" stroke-width="1"/>
<text x="128" y="444.0" text-anchor="start" font-family="Arial" font-size="13" font-weight="400" fill="#222222">Weak nonzero symmetry (0, 0.5]</text>
<rect x="368" y="422" width="60" height="34" fill="white" stroke="#cfcfcf" stroke-width="1"/>
<text x="398.0" y="444.0" text-anchor="middle" font-family="Arial" font-size="13" font-weight="400" fill="#222222">6</text>
<rect x="428" y="422" width="100" height="34" fill="white" stroke="#cfcfcf" stroke-width="1"/>
<text x="478.0" y="444.0" text-anchor="middle" font-family="Arial" font-size="13" font-weight="400" fill="#222222">0.4725</text>
<rect x="528" y="422" width="100" height="34" fill="white" stroke="#cfcfcf" stroke-width="1"/>
<text x="578.0" y="444.0" text-anchor="middle" font-family="Arial" font-size="13" font-weight="400" fill="#222222">0.4436</text>
<rect x="628" y="422" width="100" height="34" fill="white" stroke="#cfcfcf" stroke-width="1"/>
<text x="678.0" y="444.0" text-anchor="middle" font-family="Arial" font-size="13" font-weight="400" fill="#222222">0.2736</text>
<rect x="28" y="456" width="90" height="34" fill="white" stroke="#cfcfcf" stroke-width="1"/>
<text x="38" y="478.0" text-anchor="start" font-family="Arial" font-size="13" font-weight="400" fill="#222222">TransE</text>
<rect x="118" y="456" width="250" height="34" fill="white" stroke="#cfcfcf" stroke-width="1"/>
<text x="128" y="478.0" text-anchor="start" font-family="Arial" font-size="13" font-weight="400" fill="#222222">High symmetry (&gt; 0.5)</text>
<rect x="368" y="456" width="60" height="34" fill="white" stroke="#cfcfcf" stroke-width="1"/>
<text x="398.0" y="478.0" text-anchor="middle" font-family="Arial" font-size="13" font-weight="400" fill="#222222">12</text>
<rect x="428" y="456" width="100" height="34" fill="white" stroke="#cfcfcf" stroke-width="1"/>
<text x="478.0" y="478.0" text-anchor="middle" font-family="Arial" font-size="13" font-weight="400" fill="#222222">0.5742</text>
<rect x="528" y="456" width="100" height="34" fill="white" stroke="#cfcfcf" stroke-width="1"/>
<text x="578.0" y="478.0" text-anchor="middle" font-family="Arial" font-size="13" font-weight="400" fill="#222222">0.3512</text>
<rect x="628" y="456" width="100" height="34" fill="white" stroke="#cfcfcf" stroke-width="1"/>
<text x="678.0" y="478.0" text-anchor="middle" font-family="Arial" font-size="13" font-weight="400" fill="#222222">0.2119</text>
</svg>
